<svg xmlns="http://www.w3.org/2000/svg" width="32" height="32" fill="none" viewBox="0 0 32 32" id="fist">
  <g filter="url(#filter0_i_20020_3118)">
    <path fill="url(#paint0_radial_20020_3118)" d="M27.8228 9.47876H3.48999V18.807C3.48999 25.1583 8.63872 30.307 14.99 30.307H16.3228C18.4757 30.307 20.4905 29.7154 22.2134 28.6859L22.2175 28.7041C24.7364 27.2505 27.3068 24.6051 28.1215 21.3465C28.9529 18.0208 28.2562 15.6387 27.8228 14.7936V9.47876Z"></path>
  </g>
  <g filter="url(#filter1_f_20020_3118)">
    <rect width="12.678" height="6.195" x="10.28" y="12.903" fill="url(#paint1_linear_20020_3118)" rx="3.097"></rect>
  </g>
  <g filter="url(#filter2_f_20020_3118)">
    <path fill="#B45A11" d="M15.0239 14.2834C14.5197 15.1507 13.6022 15.755 12.5539 15.755C11.6243 15.755 10.7975 15.4407 10.2706 14.7681C9.74225 15.3778 8.96221 15.7634 8.0921 15.7634C6.50064 15.7634 5.21049 14.4733 5.21049 12.8818V10.1777C5.21049 8.58624 6.50064 7.2961 8.0921 7.2961C8.74085 7.2961 9.33951 7.51048 9.82113 7.87227C10.204 6.62833 11.2829 6.06234 12.5539 6.06234C13.49 6.06234 14.3218 6.50868 14.8482 7.20015C15.1077 5.92807 16.2557 5.06519 17.6326 5.06519C18.8654 5.06519 19.9146 5.85077 20.3071 6.94863C20.7329 5.8892 21.77 5.14124 22.9818 5.14124C24.5732 5.14124 25.8634 6.43137 25.8634 8.02284V12.3579C25.8634 13.9494 24.5732 15.2395 22.9818 15.2395C21.8691 15.2395 20.9037 14.6089 20.4236 13.6856C20.1774 15.0029 19.0214 16 17.6326 16C16.4633 16 15.459 15.2932 15.0239 14.2834Z"></path>
  </g>
  <rect width="6.79" height="9.976" x="3.49" y="5.138" fill="url(#paint2_radial_20020_3118)" rx="3.395"></rect>
  <rect width="6.79" height="9.976" x="3.49" y="5.138" fill="url(#paint3_radial_20020_3118)" rx="3.395"></rect>
  <rect width="6.79" height="9.976" x="3.49" y="5.138" fill="url(#paint4_radial_20020_3118)" rx="3.395"></rect>
  <rect width="6.79" height="9.976" x="3.49" y="5.138" fill="url(#paint5_radial_20020_3118)" rx="3.395"></rect>
  <path fill="url(#paint6_radial_20020_3118)" d="M8.74684 7.07931C8.74684 4.72966 10.2669 3.68427 12.1419 3.68427C14.0169 3.68427 15.5369 5.20428 15.5369 7.07931V11.5879C15.5369 13.4629 14.0169 15.104 12.1419 15.104C10.2669 15.104 8.74684 14.0187 8.74684 11.5879V7.07931Z"></path>
  <path fill="url(#paint7_radial_20020_3118)" d="M8.74684 7.07931C8.74684 4.72966 10.2669 3.68427 12.1419 3.68427C14.0169 3.68427 15.5369 5.20428 15.5369 7.07931V11.5879C15.5369 13.4629 14.0169 15.104 12.1419 15.104C10.2669 15.104 8.74684 14.0187 8.74684 11.5879V7.07931Z"></path>
  <path fill="url(#paint8_radial_20020_3118)" d="M8.74684 7.07931C8.74684 4.72966 10.2669 3.68427 12.1419 3.68427C14.0169 3.68427 15.5369 5.20428 15.5369 7.07931V11.5879C15.5369 13.4629 14.0169 15.104 12.1419 15.104C10.2669 15.104 8.74684 14.0187 8.74684 11.5879V7.07931Z"></path>
  <path fill="url(#paint9_radial_20020_3118)" d="M8.74684 7.07931C8.74684 4.72966 10.2669 3.68427 12.1419 3.68427C14.0169 3.68427 15.5369 5.20428 15.5369 7.07931V11.5879C15.5369 13.4629 14.0169 15.104 12.1419 15.104C10.2669 15.104 8.74684 14.0187 8.74684 11.5879V7.07931Z"></path>
  <rect width="6.79" height="11.898" x="21.033" y="2.599" fill="#7DDE5B" fill-opacity=".55" rx="3.395"></rect>
  <rect width="6.79" height="11.898" x="21.033" y="2.599" fill="url(#paint10_radial_20020_3118)" rx="3.395"></rect>
  <rect width="6.79" height="11.898" x="21.033" y="2.599" fill="url(#paint11_radial_20020_3118)" rx="3.395"></rect>
  <rect width="6.79" height="11.898" x="21.033" y="2.599" fill="url(#paint12_radial_20020_3118)" rx="3.395"></rect>
  <rect width="6.79" height="11.898" x="21.033" y="2.599" fill="url(#paint13_radial_20020_3118)" rx="3.395"></rect>
  <path fill="url(#paint14_radial_20020_3118)" d="M14.7803 5.67551C14.7803 3.82798 16.278 2.50946 18.1255 2.50946C19.9731 2.50946 21.4708 4.00719 21.4708 5.85472V12.0474C21.4708 13.895 19.9731 15.3927 18.1255 15.3927C16.278 15.3927 14.7803 13.895 14.7803 12.0474V5.67551Z"></path>
  <path fill="url(#paint15_radial_20020_3118)" d="M14.7803 5.67551C14.7803 3.82798 16.278 2.50946 18.1255 2.50946C19.9731 2.50946 21.4708 4.00719 21.4708 5.85472V12.0474C21.4708 13.895 19.9731 15.3927 18.1255 15.3927C16.278 15.3927 14.7803 13.895 14.7803 12.0474V5.67551Z"></path>
  <path fill="url(#paint16_radial_20020_3118)" d="M14.7803 5.67551C14.7803 3.82798 16.278 2.50946 18.1255 2.50946C19.9731 2.50946 21.4708 4.00719 21.4708 5.85472V12.0474C21.4708 13.895 19.9731 15.3927 18.1255 15.3927C16.278 15.3927 14.7803 13.895 14.7803 12.0474V5.67551Z"></path>
  <path fill="url(#paint17_radial_20020_3118)" d="M14.7803 5.67551C14.7803 3.82798 16.278 2.50946 18.1255 2.50946C19.9731 2.50946 21.4708 4.00719 21.4708 5.85472V12.0474C21.4708 13.895 19.9731 15.3927 18.1255 15.3927C16.278 15.3927 14.7803 13.895 14.7803 12.0474V5.67551Z"></path>
  <path fill="url(#paint18_radial_20020_3118)" d="M19.1012 10.1359C17.2427 10.1359 15.7361 11.6425 15.7361 13.501C15.7361 15.3596 17.2427 16.8662 19.1012 16.8662H21.5616C22.6661 16.8662 23.5616 17.7616 23.5616 18.8662V21.8642H23.7498C27.0263 21.8642 28.7188 18.843 28.7188 16.0987C28.7188 12.8055 26.0492 10.1359 22.756 10.1359H19.1012Z"></path>
  <path fill="url(#paint19_radial_20020_3118)" d="M19.1012 10.1359C17.2427 10.1359 15.7361 11.6425 15.7361 13.501C15.7361 15.3596 17.2427 16.8662 19.1012 16.8662H21.5616C22.6661 16.8662 23.5616 17.7616 23.5616 18.8662V21.8642H23.7498C27.0263 21.8642 28.7188 18.843 28.7188 16.0987C28.7188 12.8055 26.0492 10.1359 22.756 10.1359H19.1012Z"></path>
  <path fill="url(#paint20_radial_20020_3118)" d="M19.1012 10.1359C17.2427 10.1359 15.7361 11.6425 15.7361 13.501C15.7361 15.3596 17.2427 16.8662 19.1012 16.8662H21.5616C22.6661 16.8662 23.5616 17.7616 23.5616 18.8662V21.8642H23.7498C27.0263 21.8642 28.7188 18.843 28.7188 16.0987C28.7188 12.8055 26.0492 10.1359 22.756 10.1359H19.1012Z"></path>
  <path fill="url(#paint21_radial_20020_3118)" d="M19.1012 10.1359C17.2427 10.1359 15.7361 11.6425 15.7361 13.501C15.7361 15.3596 17.2427 16.8662 19.1012 16.8662H21.5616C22.6661 16.8662 23.5616 17.7616 23.5616 18.8662V21.8642H23.7498C27.0263 21.8642 28.7188 18.843 28.7188 16.0987C28.7188 12.8055 26.0492 10.1359 22.756 10.1359H19.1012Z"></path>
  <g filter="url(#filter3_f_20020_3118)">
    <path stroke="url(#paint22_linear_20020_3118)" stroke-linecap="round" stroke-width="2" d="M19.8279 12.2501H22.1529C25.6148 12.1187 27.2644 13.2608 27.8228 15.3927"></path>
  </g>
  <defs>
    <radialGradient id="paint0_radial_20020_3118" cx="0" cy="0" r="1" gradientTransform="matrix(0 14.3034 -15.1439 0 16 17.516)" gradientUnits="userSpaceOnUse">
      <stop stop-color="#FDAD36"></stop>
      <stop offset="1" stop-color="#FFBD33"></stop>
    </radialGradient>
    <radialGradient id="paint2_radial_20020_3118" cx="0" cy="0" r="1" gradientTransform="matrix(-4.65948 0 0 -9.31895 8.15 8.762)" gradientUnits="userSpaceOnUse">
      <stop stop-color="#FFC734"></stop>
      <stop offset="1" stop-color="#EF9C2E"></stop>
    </radialGradient>
    <radialGradient id="paint3_radial_20020_3118" cx="0" cy="0" r="1" gradientTransform="rotate(107.103 1.074 7.072)scale(7.31258 6.34489)" gradientUnits="userSpaceOnUse">
      <stop offset=".629" stop-color="#E7803A" stop-opacity="0"></stop>
      <stop offset="1" stop-color="#E7803A"></stop>
    </radialGradient>
    <radialGradient id="paint4_radial_20020_3118" cx="0" cy="0" r="1" gradientTransform="matrix(-1.67954 0 0 -10.0187 9.663 10.126)" gradientUnits="userSpaceOnUse">
      <stop offset=".413" stop-color="#BD7209"></stop>
      <stop offset="1" stop-color="#BD7209" stop-opacity="0"></stop>
    </radialGradient>
    <radialGradient id="paint5_radial_20020_3118" cx="0" cy="0" r="1" gradientTransform="matrix(1.22807 1.63545 -3.19277 2.39747 4.202 5.531)" gradientUnits="userSpaceOnUse">
      <stop stop-color="#CEA142"></stop>
      <stop offset="1" stop-color="#CEA142" stop-opacity="0"></stop>
    </radialGradient>
    <radialGradient id="paint6_radial_20020_3118" cx="0" cy="0" r="1" gradientTransform="matrix(-5.39944 0 0 -14.5141 13.406 7.833)" gradientUnits="userSpaceOnUse">
      <stop stop-color="#FFD738"></stop>
      <stop offset="1" stop-color="#EF9C2E"></stop>
    </radialGradient>
    <radialGradient id="paint7_radial_20020_3118" cx="0" cy="0" r="1" gradientTransform="rotate(98.073 3.477 8.943)scale(8.90071 6.88498)" gradientUnits="userSpaceOnUse">
      <stop offset=".629" stop-color="#E7803A" stop-opacity="0"></stop>
      <stop offset="1" stop-color="#E7803A"></stop>
    </radialGradient>
    <radialGradient id="paint8_radial_20020_3118" cx="0" cy="0" r="1" gradientTransform="matrix(-1.09375 0 0 -12.5748 15.194 9.394)" gradientUnits="userSpaceOnUse">
      <stop offset=".343" stop-color="#BD7209"></stop>
      <stop offset="1" stop-color="#BD7209" stop-opacity="0"></stop>
    </radialGradient>
    <radialGradient id="paint9_radial_20020_3118" cx="0" cy="0" r="1" gradientTransform="rotate(56.736 .901 10.826)scale(2.23897 4.17494)" gradientUnits="userSpaceOnUse">
      <stop stop-color="#CEA142"></stop>
      <stop offset="1" stop-color="#CEA142" stop-opacity="0"></stop>
    </radialGradient>
    <radialGradient id="paint10_radial_20020_3118" cx="0" cy="0" r="1" gradientTransform="matrix(-3.80251 0 0 -9.85624 25.692 6.921)" gradientUnits="userSpaceOnUse">
      <stop stop-color="#FFE744"></stop>
      <stop offset="1" stop-color="#E7AF1D"></stop>
    </radialGradient>
    <radialGradient id="paint11_radial_20020_3118" cx="0" cy="0" r="1" gradientTransform="rotate(97.753 10.02 13.86)scale(9.26599 6.89033)" gradientUnits="userSpaceOnUse">
      <stop offset=".629" stop-color="#E7803A" stop-opacity="0"></stop>
      <stop offset="1" stop-color="#E7803A"></stop>
    </radialGradient>
    <radialGradient id="paint12_radial_20020_3118" cx="0" cy="0" r="1" gradientTransform="matrix(1.76987 0 0 21.1996 20.228 8.548)" gradientUnits="userSpaceOnUse">
      <stop offset=".379" stop-color="#BD7209"></stop>
      <stop offset="1" stop-color="#BD7209" stop-opacity="0"></stop>
    </radialGradient>
    <radialGradient id="paint13_radial_20020_3118" cx="0" cy="0" r="1" gradientTransform="rotate(57.804 8.094 21.228)scale(2.30488 4.22527)" gradientUnits="userSpaceOnUse">
      <stop stop-color="#CEA142"></stop>
      <stop offset="1" stop-color="#CEA142" stop-opacity="0"></stop>
    </radialGradient>
    <radialGradient id="paint14_radial_20020_3118" cx="0" cy="0" r="1" gradientTransform="rotate(179.148 9.659 3.667)scale(4.59167 13.079)" gradientUnits="userSpaceOnUse">
      <stop stop-color="#FFE744"></stop>
      <stop offset="1" stop-color="#E19614"></stop>
    </radialGradient>
    <radialGradient id="paint15_radial_20020_3118" cx="0" cy="0" r="1" gradientTransform="rotate(97.062 6.756 11.292)scale(10.0179 6.79995)" gradientUnits="userSpaceOnUse">
      <stop offset=".629" stop-color="#E7803A" stop-opacity="0"></stop>
      <stop offset="1" stop-color="#E7803A"></stop>
    </radialGradient>
    <radialGradient id="paint16_radial_20020_3118" cx="0" cy="0" r="1" gradientTransform="matrix(-1.15579 -5.27349 5.20313 -1.14037 16.363 14.88)" gradientUnits="userSpaceOnUse">
      <stop stop-color="#DA7621"></stop>
      <stop offset="1" stop-color="#DA7621" stop-opacity="0"></stop>
    </radialGradient>
    <radialGradient id="paint17_radial_20020_3118" cx="0" cy="0" r="1" gradientTransform="rotate(60.19 5.138 14.865)scale(2.43413 4.26884)" gradientUnits="userSpaceOnUse">
      <stop stop-color="#CEA142"></stop>
      <stop offset="1" stop-color="#CEA142" stop-opacity="0"></stop>
    </radialGradient>
    <radialGradient id="paint18_radial_20020_3118" cx="0" cy="0" r="1" gradientTransform="matrix(-1.2179 6.93823 -12.8582 -2.25707 25.116 11.355)" gradientUnits="userSpaceOnUse">
      <stop stop-color="#FFDF40"></stop>
      <stop offset="1" stop-color="#F2B02C"></stop>
    </radialGradient>
    <radialGradient id="paint19_radial_20020_3118" cx="0" cy="0" r="1" gradientTransform="matrix(0 2.77179 -6.0673 0 20.517 17.887)" gradientUnits="userSpaceOnUse">
      <stop offset=".412" stop-color="#EC7E4B"></stop>
      <stop offset="1" stop-color="#EE8350" stop-opacity="0"></stop>
    </radialGradient>
    <radialGradient id="paint20_radial_20020_3118" cx="0" cy="0" r="1" gradientTransform="matrix(1.95599 -2.8705 3.17752 2.1652 23.602 21.864)" gradientUnits="userSpaceOnUse">
      <stop stop-color="#FFB735"></stop>
      <stop offset="1" stop-color="#FFB735" stop-opacity="0"></stop>
    </radialGradient>
    <radialGradient id="paint21_radial_20020_3118" cx="0" cy="0" r="1" gradientTransform="matrix(3.54293 0 0 5.4251 15.225 13.605)" gradientUnits="userSpaceOnUse">
      <stop stop-color="#F0A92E"></stop>
      <stop offset="1" stop-color="#F0A92E" stop-opacity="0"></stop>
    </radialGradient>
    <filter id="filter0_i_20020_3118" width="25.02" height="20.828" x="3.49" y="9.479" color-interpolation-filters="sRGB" filterUnits="userSpaceOnUse">
      <feFlood flood-opacity="0" result="BackgroundImageFix"></feFlood>
      <feBlend in="SourceGraphic" in2="BackgroundImageFix" result="shape"></feBlend>
      <feColorMatrix in="SourceAlpha" result="hardAlpha" values="0 0 0 0 0 0 0 0 0 0 0 0 0 0 0 0 0 0 127 0"></feColorMatrix>
      <feOffset></feOffset>
      <feGaussianBlur stdDeviation="2"></feGaussianBlur>
      <feComposite in2="hardAlpha" k2="-1" k3="1" operator="arithmetic"></feComposite>
      <feColorMatrix values="0 0 0 0 0.968627 0 0 0 0 0.584314 0 0 0 0 0.305882 0 0 0 1 0"></feColorMatrix>
      <feBlend in2="shape" result="effect1_innerShadow_20020_3118"></feBlend>
    </filter>
    <filter id="filter1_f_20020_3118" width="18.678" height="12.194" x="7.28" y="9.903" color-interpolation-filters="sRGB" filterUnits="userSpaceOnUse">
      <feFlood flood-opacity="0" result="BackgroundImageFix"></feFlood>
      <feBlend in="SourceGraphic" in2="BackgroundImageFix" result="shape"></feBlend>
      <feGaussianBlur result="effect1_foregroundBlur_20020_3118" stdDeviation="1.5"></feGaussianBlur>
    </filter>
    <filter id="filter2_f_20020_3118" width="24.653" height="14.935" x="3.21" y="3.065" color-interpolation-filters="sRGB" filterUnits="userSpaceOnUse">
      <feFlood flood-opacity="0" result="BackgroundImageFix"></feFlood>
      <feBlend in="SourceGraphic" in2="BackgroundImageFix" result="shape"></feBlend>
      <feGaussianBlur result="effect1_foregroundBlur_20020_3118" stdDeviation="1"></feGaussianBlur>
    </filter>
    <filter id="filter3_f_20020_3118" width="13.395" height="8.553" x="17.128" y="9.54" color-interpolation-filters="sRGB" filterUnits="userSpaceOnUse">
      <feFlood flood-opacity="0" result="BackgroundImageFix"></feFlood>
      <feBlend in="SourceGraphic" in2="BackgroundImageFix" result="shape"></feBlend>
      <feGaussianBlur result="effect1_foregroundBlur_20020_3118" stdDeviation=".85"></feGaussianBlur>
    </filter>
    <linearGradient id="paint1_linear_20020_3118" x1="20.393" x2="8.571" y1="17.241" y2="21.196" gradientUnits="userSpaceOnUse">
      <stop stop-color="#CC6E17"></stop>
      <stop offset="1" stop-color="#CC6E17" stop-opacity="0"></stop>
    </linearGradient>
    <linearGradient id="paint22_linear_20020_3118" x1="19.828" x2="31.896" y1="12.402" y2="16.683" gradientUnits="userSpaceOnUse">
      <stop stop-color="#FFDE43"></stop>
      <stop offset="1" stop-color="#FFDE43" stop-opacity="0"></stop>
    </linearGradient>
  </defs>
</svg>
