<?xml version="1.0" encoding="UTF-8"?>
<svg version="1.1" xmlns="http://www.w3.org/2000/svg" width="240" height="240">
<path d="M0 0 C3.37712667 0.79631335 3.37712667 0.79631335 6.8125 1.0625 C7.1425 0.7325 7.4725 0.4025 7.8125 0.0625 C12.15619658 0.22956525 14.29663663 0.636352 17.6875 3.4375 C20.41449566 6.8061417 20.93153522 9.3105354 21.12890625 13.51171875 C21.17080078 14.35927734 21.21269531 15.20683594 21.25585938 16.08007812 C21.29517578 16.96115234 21.33449219 17.84222656 21.375 18.75 C21.41818359 19.64267578 21.46136719 20.53535156 21.50585938 21.45507812 C21.61185353 23.65740108 21.71392051 25.85983473 21.8125 28.0625 C22.57304687 27.28390625 23.33359375 26.5053125 24.1171875 25.703125 C28.57320045 21.33752391 32.7454099 18.29843001 39.0625 17.8125 C44.60524942 18.18201663 48.31917087 19.80674596 52.5625 23.375 C57.72736743 29.54414721 58.09843958 34.07040982 57.8203125 41.94140625 C57.68240846 44.9604797 57.68240846 44.9604797 58.41088867 47.3984375 C58.90621386 50.68414479 58.27814728 52.66555816 57.23046875 55.80859375 C56.69776367 57.43571289 56.69776367 57.43571289 56.15429688 59.09570312 C55.58291992 60.78083008 55.58291992 60.78083008 55 62.5 C54.63068359 63.61955078 54.26136719 64.73910156 53.88085938 65.89257812 C52.86916733 68.95308278 51.8429341 72.00826554 50.8125 75.0625 C49.60904308 78.6532314 48.44160768 82.24130264 47.375 85.875 C43.63974719 98.40800562 43.63974719 98.40800562 41.8125 102.0625 C45.74362039 100.32504185 49.05633113 97.77915414 52.5 95.25 C68.03245843 84.10928456 68.03245843 84.10928456 77.16796875 84.58203125 C83.14498868 85.66795954 87.14196905 88.85540923 90.75 93.625 C93.83859392 98.15842769 94.33734675 102.6390836 93.8125 108.0625 C91.06844391 118.54806531 82.05181098 123.9732484 73.8125 130.0625 C59.02897217 141.17577612 47.82639666 155.30425301 37.75 170.6875 C25.44938061 189.43016228 9.99742412 204.9144083 -12.65625 209.8125 C-18.21837861 210.73101665 -23.56079833 211.19037958 -29.1875 211.0625 C-29.5175 211.3925 -29.8475 211.7225 -30.1875 212.0625 C-32.31471057 212.02440945 -34.44074227 211.90690703 -36.5625 211.75 C-37.72523437 211.67136719 -38.88796875 211.59273437 -40.0859375 211.51171875 C-43.1875 211.0625 -43.1875 211.0625 -46.1875 209.0625 C-45.8575 208.7325 -45.5275 208.4025 -45.1875 208.0625 C-46.72857422 207.35287109 -46.72857422 207.35287109 -48.30078125 206.62890625 C-57.14041491 202.45059778 -65.2583546 198.13844933 -72.1875 191.0625 C-72.1875 190.4025 -72.1875 189.7425 -72.1875 189.0625 C-72.8475 189.0625 -73.5075 189.0625 -74.1875 189.0625 C-91.99544078 171.80588866 -93.13759188 141.82107817 -95.36206055 118.86621094 C-97.02499627 101.80958347 -99.77785588 85.44232319 -104.37695312 68.91015625 C-106.38401872 61.1272564 -106.18066833 55.67825823 -103 48.3125 C-101.94492679 46.04533836 -101.94492679 46.04533836 -102.8125 43.5625 C-103.1875 41.0625 -103.1875 41.0625 -101.5 38.375 C-98.70059911 35.57559911 -96.71952208 34.21490572 -92.74560547 33.81958008 C-91.85760254 33.82368896 -90.96959961 33.82779785 -90.0546875 33.83203125 C-89.08402344 33.83396484 -88.11335938 33.83589844 -87.11328125 33.83789062 C-85.60314453 33.85625977 -85.60314453 33.85625977 -84.0625 33.875 C-82.54076172 33.8759668 -82.54076172 33.8759668 -80.98828125 33.87695312 C-73.46847625 33.92201188 -73.46847625 33.92201188 -71.1875 35.0625 C-70.8575 33.4125 -70.5275 31.7625 -70.1875 30.0625 C-69.8575 30.0625 -69.5275 30.0625 -69.1875 30.0625 C-68.6925 35.0125 -68.6925 35.0125 -68.1875 40.0625 C-68.249375 38.721875 -68.31125 37.38125 -68.375 36 C-68.36574148 30.11157864 -67.01331154 26.09697572 -63 21.625 C-62.401875 21.109375 -61.80375 20.59375 -61.1875 20.0625 C-62.1775 20.0625 -63.1675 20.0625 -64.1875 20.0625 C-64.1875 17.0625 -64.1875 17.0625 -62 14.4140625 C-57.11048042 10.59484269 -51.10118348 11.33915715 -45.1875 11.4375 C-44.02476563 11.41816406 -42.86203125 11.39882813 -41.6640625 11.37890625 C-32.19058737 11.43310233 -32.19058737 11.43310233 -28.375 14.6015625 C-27.2921875 15.81972656 -27.2921875 15.81972656 -26.1875 17.0625 C-25.5275 16.4025 -24.8675 15.7425 -24.1875 15.0625 C-24.1875 17.7025 -24.1875 20.3425 -24.1875 23.0625 C-24.05794922 22.010625 -24.05794922 22.010625 -23.92578125 20.9375 C-22.86781786 13.79382061 -21.39347891 7.373385 -15.48046875 2.71875 C-10.2265571 -0.48625057 -5.93419618 -1.3735734 0 0 Z M11.8125 7.0625 C12.8125 9.0625 12.8125 9.0625 12.8125 9.0625 Z M12.8125 9.0625 C13.8125 11.0625 13.8125 11.0625 13.8125 11.0625 Z M13.8125 11.0625 C14.8125 13.0625 14.8125 13.0625 14.8125 13.0625 Z M14.8125 13.0625 C14.8125 16.6925 14.8125 20.3225 14.8125 24.0625 C15.1425 24.0625 15.4725 24.0625 15.8125 24.0625 C15.8125 20.4325 15.8125 16.8025 15.8125 13.0625 C15.4825 13.0625 15.1525 13.0625 14.8125 13.0625 Z M-54.1875 15.0625 C-54.1875 15.3925 -54.1875 15.7225 -54.1875 16.0625 C-50.8875 16.0625 -47.5875 16.0625 -44.1875 16.0625 C-44.1875 15.7325 -44.1875 15.4025 -44.1875 15.0625 C-47.4875 15.0625 -50.7875 15.0625 -54.1875 15.0625 Z M-25.1875 24.0625 C-25.1875 26.7025 -25.1875 29.3425 -25.1875 32.0625 C-24.8575 32.0625 -24.5275 32.0625 -24.1875 32.0625 C-24.1875 29.4225 -24.1875 26.7825 -24.1875 24.0625 C-24.5175 24.0625 -24.8475 24.0625 -25.1875 24.0625 Z M-31.1875 28.0625 C-30.1875 30.0625 -30.1875 30.0625 -30.1875 30.0625 Z M20.8125 29.0625 C20.4825 30.7125 20.1525 32.3625 19.8125 34.0625 C20.4725 33.4025 21.1325 32.7425 21.8125 32.0625 C21.4825 31.0725 21.1525 30.0825 20.8125 29.0625 Z M-30.1875 31.0625 C-30.1875 32.7125 -30.1875 34.3625 -30.1875 36.0625 C-29.8575 36.0625 -29.5275 36.0625 -29.1875 36.0625 C-29.1875 34.4125 -29.1875 32.7625 -29.1875 31.0625 C-29.5175 31.0625 -29.8475 31.0625 -30.1875 31.0625 Z M-26.1875 32.0625 C-26.1875 34.0425 -26.1875 36.0225 -26.1875 38.0625 C-25.8575 38.0625 -25.5275 38.0625 -25.1875 38.0625 C-25.1875 36.0825 -25.1875 34.1025 -25.1875 32.0625 C-25.5175 32.0625 -25.8475 32.0625 -26.1875 32.0625 Z M18.8125 34.0625 C19.8125 36.0625 19.8125 36.0625 19.8125 36.0625 Z M17.8125 36.0625 C18.8125 38.0625 18.8125 38.0625 18.8125 38.0625 Z M-90.1875 39.0625 C-90.1875 39.3925 -90.1875 39.7225 -90.1875 40.0625 C-87.8775 40.0625 -85.5675 40.0625 -83.1875 40.0625 C-83.1875 39.7325 -83.1875 39.4025 -83.1875 39.0625 C-85.4975 39.0625 -87.8075 39.0625 -90.1875 39.0625 Z M-27.1875 39.0625 C-27.1875 41.0425 -27.1875 43.0225 -27.1875 45.0625 C-26.8575 45.0625 -26.5275 45.0625 -26.1875 45.0625 C-26.1875 43.0825 -26.1875 41.1025 -26.1875 39.0625 C-26.5175 39.0625 -26.8475 39.0625 -27.1875 39.0625 Z M15.8125 41.0625 C16.8125 43.0625 16.8125 43.0625 16.8125 43.0625 Z M-99.1875 43.0625 C-99.5175 43.7225 -99.8475 44.3825 -100.1875 45.0625 C-99.1975 44.7325 -98.2075 44.4025 -97.1875 44.0625 C-97.8475 43.7325 -98.5075 43.4025 -99.1875 43.0625 Z M14.8125 44.0625 C15.8125 46.0625 15.8125 46.0625 15.8125 46.0625 Z M55.8125 45.0625 C56.8125 47.0625 56.8125 47.0625 56.8125 47.0625 Z M13.8125 46.0625 C14.8125 48.0625 14.8125 48.0625 14.8125 48.0625 Z M54.8125 47.0625 C55.8125 50.0625 55.8125 50.0625 55.8125 50.0625 Z M12.8125 49.0625 C13.8125 51.0625 13.8125 51.0625 13.8125 51.0625 Z M53.8125 50.0625 C54.8125 53.0625 54.8125 53.0625 54.8125 53.0625 Z M-67.1875 53.0625 C-68.28408936 56.35226808 -67.98703138 57.77553767 -67.1875 61.0625 C-66.8575 61.0625 -66.5275 61.0625 -66.1875 61.0625 C-66.1875 58.4225 -66.1875 55.7825 -66.1875 53.0625 C-66.5175 53.0625 -66.8475 53.0625 -67.1875 53.0625 Z M52.8125 53.0625 C53.8125 55.0625 53.8125 55.0625 53.8125 55.0625 Z M51.8125 55.0625 C52.8125 58.0625 52.8125 58.0625 52.8125 58.0625 Z M50.8125 58.0625 C51.8125 61.0625 51.8125 61.0625 51.8125 61.0625 Z M49.8125 61.0625 C50.8125 64.0625 50.8125 64.0625 50.8125 64.0625 Z M48.8125 64.0625 C49.8125 66.0625 49.8125 66.0625 49.8125 66.0625 Z M47.8125 67.0625 C48.8125 69.0625 48.8125 69.0625 48.8125 69.0625 Z M46.8125 70.0625 C47.8125 72.0625 47.8125 72.0625 47.8125 72.0625 Z M45.8125 73.0625 C46.8125 75.0625 46.8125 75.0625 46.8125 75.0625 Z M44.8125 75.0625 C45.8125 77.0625 45.8125 77.0625 45.8125 77.0625 Z M46.8125 76.0625 C47.8125 78.0625 47.8125 78.0625 47.8125 78.0625 Z M43.8125 78.0625 C44.8125 80.0625 44.8125 80.0625 44.8125 80.0625 Z M42.8125 81.0625 C43.8125 83.0625 43.8125 83.0625 43.8125 83.0625 Z M41.8125 84.0625 C42.8125 86.0625 42.8125 86.0625 42.8125 86.0625 Z M-42.1875 208.0625 C-42.1875 208.7225 -42.1875 209.3825 -42.1875 210.0625 C-40.5375 210.0625 -38.8875 210.0625 -37.1875 210.0625 C-39.56912009 208.64864089 -39.56912009 208.64864089 -42.1875 208.0625 Z M-37.1875 210.0625 C-37.1875 210.3925 -37.1875 210.7225 -37.1875 211.0625 C-35.2075 211.0625 -33.2275 211.0625 -31.1875 211.0625 C-31.1875 210.7325 -31.1875 210.4025 -31.1875 210.0625 C-33.1675 210.0625 -35.1475 210.0625 -37.1875 210.0625 Z " fill="#FDC040" transform="translate(127.1875,14.9375)"/>
<path d="M0 0 C0.99 0.66 1.98 1.32 3 2 C1.68 2 0.36 2 -1 2 C-1.66 3.65 -2.32 5.3 -3 7 C-3.66 7 -4.32 7 -5 7 C-5.13277344 8.27617188 -5.26554687 9.55234375 -5.40234375 10.8671875 C-5.58052665 12.53647996 -5.75892314 14.20574964 -5.9375 15.875 C-6.06801758 17.13763672 -6.06801758 17.13763672 -6.20117188 18.42578125 C-6.33168945 19.63427734 -6.33168945 19.63427734 -6.46484375 20.8671875 C-6.543396 21.61081543 -6.62194824 22.35444336 -6.70288086 23.12060547 C-7 25 -7 25 -8 27 C-7.91986596 36.13857346 -5.77197206 45.24163755 -4.0625 54.1875 C-2.17523086 64.0696573 -0.54510763 73.89378366 0.57250977 83.89575195 C0.81728151 86.90207237 0.81728151 86.90207237 2 89 C2.08131463 90.43655854 2.13933559 91.8744483 2.1875 93.3125 C4.33709723 118.13057716 16.65422401 141.42255442 35 158 C38.27677225 160.20410689 41.15321545 161.20276784 45 162 C46.19882813 162.27714844 47.39765625 162.55429688 48.6328125 162.83984375 C52.40303291 163.67556964 56.19248501 164.35415766 60 165 C60.79148437 165.14566406 61.58296875 165.29132813 62.3984375 165.44140625 C72.47740831 166.96676773 84.7555495 166.37895024 94 162 C94.37284369 160.67717103 94.70804338 159.34300045 95 158 C97.4375 156.6875 97.4375 156.6875 100 156 C100.66 156.33 101.32 156.66 102 157 C102.53625 156.443125 103.0725 155.88625 103.625 155.3125 C106 153 106 153 109 150.5625 C112.04566531 148.12359527 112.04566531 148.12359527 114.25 145.1875 C114.8275 144.465625 115.405 143.74375 116 143 C116.66 143 117.32 143 118 143 C118.103125 142.4225 118.20625 141.845 118.3125 141.25 C119.10896465 138.64338842 120.19065277 137.0264689 122 135 C122.66 135 123.32 135 124 135 C124.103125 134.443125 124.20625 133.88625 124.3125 133.3125 C125.14898763 130.49885978 126.28217263 128.37853021 128 126 C128.99 126 129.98 126 131 126 C128.71949869 132.55494878 124.26041543 137.63080138 120 143 C118.95972656 144.31291016 118.95972656 144.31291016 117.8984375 145.65234375 C105.17286253 160.73715453 88.51404645 169.07061808 69 171 C66.66667692 171.00691697 64.33331608 171.00897429 62 171 C61.67 171.33 61.34 171.66 61 172 C58.87278943 171.96190945 56.74675773 171.84440703 54.625 171.6875 C53.46226563 171.60886719 52.29953125 171.53023437 51.1015625 171.44921875 C48 171 48 171 45 169 C45.33 168.67 45.66 168.34 46 168 C44.45892578 167.29037109 44.45892578 167.29037109 42.88671875 166.56640625 C34.04708509 162.38809778 25.9291454 158.07594933 19 151 C19 150.34 19 149.68 19 149 C18.34 149 17.68 149 17 149 C-0.80794078 131.74338866 -1.95009188 101.75857817 -4.17456055 78.80371094 C-5.83749627 61.74708347 -8.59035588 45.37982319 -13.18945312 28.84765625 C-15.27019916 20.77904204 -15.16701818 15.10185583 -11.25 7.6875 C-8.05013309 3.86543674 -4.72188693 1.57396231 0 0 Z M49 168 C49 168.66 49 169.32 49 170 C50.65 170 52.3 170 54 170 C51.61837991 168.58614089 51.61837991 168.58614089 49 168 Z M54 170 C54 170.33 54 170.66 54 171 C55.98 171 57.96 171 60 171 C60 170.67 60 170.34 60 170 C58.02 170 56.04 170 54 170 Z " fill="#F99458" transform="translate(36,55)"/>
<path d="M0 0 C0.66 0.33 1.32 0.66 2 1 C2.77811718 4.81984796 3.24386556 7.26840331 2 11 C1.34 11 0.68 11 0 11 C-0.33 8.69 -0.66 6.38 -1 4 C-1.99 4.66 -2.98 5.32 -4 6 C-3.79375 6.721875 -3.5875 7.44375 -3.375 8.1875 C-2.92782073 11.54134451 -3.71776508 12.9072855 -5 16 C-5.48700835 17.86775729 -5.94393843 19.74354302 -6.375 21.625 C-7.37481577 25.7823972 -8.57800605 29.70230907 -10.125 33.6875 C-11.40821146 37.04691876 -12.21456627 39.91395176 -12.4375 43.5 C-13.1160452 52.33686774 -18.64856046 60.4756358 -23 68 C-23.53625 68.99 -24.0725 69.98 -24.625 71 C-26 73 -26 73 -29 74 C-29.64647723 63.83594135 -27.96352183 54.97798719 -25.53466797 45.17285156 C-24.73320343 41.91575825 -23.99460146 38.64554613 -23.25 35.375 C-22.83411427 33.5831519 -22.41778385 31.79140649 -22 30 C-21.67 30 -21.34 30 -21 30 C-21 33.63 -21 37.26 -21 41 C-20.50371094 39.50210938 -20.00742188 38.00421875 -19.49609375 36.4609375 C-9.02146321 5.29410796 -9.02146321 5.29410796 0 0 Z " fill="#E59F2A" transform="translate(158,35)"/>
<path d="M0 0 C0.66 0.33 1.32 0.66 2 1 C1.34 2.98 0.68 4.96 0 7 C-0.99 6.67 -1.98 6.34 -3 6 C-4.67380521 8.71674217 -4.67380521 8.71674217 -4.75 11.8125 C-4.5025 12.534375 -4.255 13.25625 -4 14 C-3.649375 15.2375 -3.29875 16.475 -2.9375 17.75 C-2.628125 18.8225 -2.31875 19.895 -2 21 C-2 19.68 -2 18.36 -2 17 C-1.01 16.67 -0.02 16.34 1 16 C3.60994264 25.21510516 3.60994264 25.21510516 1 30 C1 30.66 1 31.32 1 32 C0.34 32 -0.32 32 -1 32 C-0.91621094 32.74765625 -0.83242187 33.4953125 -0.74609375 34.265625 C-0.64425781 35.25046875 -0.54242188 36.2353125 -0.4375 37.25 C-0.33308594 38.22453125 -0.22867188 39.1990625 -0.12109375 40.203125 C0 43 0 43 -0.52734375 44.82617188 C-1.12658714 47.58219622 -0.81632676 49.78456341 -0.44140625 52.578125 C-0.30283203 53.65707031 -0.16425781 54.73601562 -0.02148438 55.84765625 C0.12998047 56.97042969 0.28144531 58.09320313 0.4375 59.25 C1.36576644 66.21402506 2.21440611 72.96747956 2 80 C-2.13833774 77.14136362 -3.70369995 75.18110916 -4.9140625 70.30859375 C-5.20023438 69.19806641 -5.48640625 68.08753906 -5.78125 66.94335938 C-6.0596875 65.78642578 -6.338125 64.62949219 -6.625 63.4375 C-7.20048873 61.16535645 -7.77600926 58.89322096 -8.3515625 56.62109375 C-8.76039673 54.95759888 -8.76039673 54.95759888 -9.17749023 53.26049805 C-10.1780713 49.29411036 -11.29467055 45.36601783 -12.4440918 41.44042969 C-13.32639453 37.5671323 -13.19453895 33.95562531 -13 30 C-11.68 30.99 -10.36 31.98 -9 33 C-9.01571045 32.43079834 -9.0314209 31.86159668 -9.04760742 31.27514648 C-9.11048439 28.66270126 -9.14915532 26.0504159 -9.1875 23.4375 C-9.22520508 22.09461914 -9.22520508 22.09461914 -9.26367188 20.72460938 C-9.33620835 14.12379056 -8.65637535 9.30269539 -4.39453125 4.00390625 C-2.9296875 2.66927083 -1.46484375 1.33463542 0 0 Z M-8 35 C-9.09658936 38.28976808 -8.79953138 39.71303767 -8 43 C-7.67 43 -7.34 43 -7 43 C-7 40.36 -7 37.72 -7 35 C-7.33 35 -7.66 35 -8 35 Z " fill="#EDA525" transform="translate(68,33)"/>
<path d="M0 0 C2.68092691 2.68092691 2.38670257 4.39167363 2.625 8.125 C2.69976562 9.22070312 2.77453125 10.31640625 2.8515625 11.4453125 C2.92503906 12.70988281 2.92503906 12.70988281 3 14 C3.66 14 4.32 14 5 14 C5.33 12.68 5.66 11.36 6 10 C7.23756087 13.71268262 6.56501274 14.69465821 5.125 18.25 C3.86083298 21.52298038 2.76306608 24.50740527 2.375 28 C2 31 2 31 0 34 C-0.99 34 -1.98 34 -3 34 C-2.835 34.61875 -2.67 35.2375 -2.5 35.875 C-1.79924683 40.25470729 -1.92265749 44.57428989 -2 49 C-1.34 49.33 -0.68 49.66 0 50 C-0.20625 50.78375 -0.4125 51.5675 -0.625 52.375 C-0.74875 53.24125 -0.8725 54.1075 -1 55 C-0.34 55.66 0.32 56.32 1 57 C0.34 57.66 -0.32 58.32 -1 59 C-1.64803656 61.48785831 -1.64803656 61.48785831 -2.0625 64.3125 C-2.21847656 65.25738281 -2.37445313 66.20226562 -2.53515625 67.17578125 C-2.68855469 68.10777344 -2.84195313 69.03976563 -3 70 C-3.85617978 74.71235955 -3.85617978 74.71235955 -5 77 C-5.35169068 78.32860925 -5.68770276 79.66158328 -6 81 C-7.9694048 77.64436121 -8.42903497 74.72215493 -8.81640625 70.87109375 C-8.94080078 69.67033203 -9.06519531 68.46957031 -9.19335938 67.23242188 C-9.37608398 65.35393555 -9.37608398 65.35393555 -9.5625 63.4375 C-9.68818359 62.21224609 -9.81386719 60.98699219 -9.94335938 59.72460938 C-10.30702617 56.1507739 -10.65409022 52.57559062 -11 49 C-11.10223877 48.02264893 -11.20447754 47.04529785 -11.30981445 46.03833008 C-11.95714956 39.61133986 -12.12199053 33.26951084 -12.0625 26.8125 C-12.05573242 25.38454102 -12.05573242 25.38454102 -12.04882812 23.92773438 C-12.03722353 21.61841902 -12.02090252 19.30924663 -12 17 C-11.34 17.33 -10.68 17.66 -10 18 C-9.40234375 20.58984375 -9.40234375 20.58984375 -8.9375 23.9375 C-8.77378906 25.10539062 -8.61007813 26.27328125 -8.44140625 27.4765625 C-7.87748546 31.97794793 -7.38771416 36.48006912 -7 41 C-5.54013625 38.0802725 -5.44976274 35.0035733 -5.09765625 31.796875 C-4.92787146 30.32680708 -4.75794503 28.85675551 -4.58789062 27.38671875 C-4.32457941 25.07202947 -4.06329691 22.75714122 -3.80493164 20.44189453 C-3.55390403 18.2053797 -3.2949455 15.96988663 -3.03515625 13.734375 C-2.96112076 13.0497821 -2.88708527 12.36518921 -2.81080627 11.65985107 C-2.3290591 7.55375728 -1.43968811 3.87374184 0 0 Z " fill="#E99D2C" transform="translate(106,25)"/>
<path d="M0 0 C4.34369658 0.16706525 6.48413663 0.573852 9.875 3.375 C15.10523706 9.83588108 14.50109115 21.00467183 14 29 C13.23378769 32.53109402 11.81208212 35.58849799 10.12890625 38.78515625 C8.77294296 41.03114628 8.77294296 41.03114628 9 44 C8.34 44 7.68 44 7 44 C7 45.65 7 47.3 7 49 C6.34 49 5.68 49 5 49 C5.33 49.99 5.66 50.98 6 52 C5.22265625 54.91796875 5.22265625 54.91796875 4.0625 58.1875 C3.68222656 59.27417969 3.30195313 60.36085937 2.91015625 61.48046875 C2.60980469 62.31191406 2.30945313 63.14335938 2 64 C1.67 64 1.34 64 1 64 C1.14084796 62.20793453 1.28783701 60.41635083 1.4375 58.625 C1.51871094 57.62726563 1.59992188 56.62953125 1.68359375 55.6015625 C2 53 2 53 3 51 C2.95875 49.824375 2.9175 48.64875 2.875 47.4375 C2.80220854 42.51194486 3.57944079 37.83225474 4.4375 33 C4.5720459 32.23357178 4.7065918 31.46714355 4.84521484 30.67749023 C5.86572903 25.13427097 5.86572903 25.13427097 7 24 C7.83687452 17.19740569 7.35624052 12.25476317 3.3125 6.66015625 C2.879375 6.11230469 2.44625 5.56445312 2 5 C1.401875 4.175 0.80375 3.35 0.1875 2.5 C-0.4003125 1.7575 -0.4003125 1.7575 -1 1 C-0.67 0.67 -0.34 0.34 0 0 Z " fill="#FBD142" transform="translate(135,15)"/>
<path d="M0 0 C0.33 0 0.66 0 1 0 C1.495 10.395 1.495 10.395 2 21 C0 20 0 20 -2 18 C-2 17.01 -2 16.02 -2 15 C-5.04913228 13.98888907 -5.04913228 13.98888907 -8 15 C-10.3494053 14.39239518 -12.68529088 13.72870472 -15 13 C-15 12.67 -15 12.34 -15 12 C-13.35 11.67 -11.7 11.34 -10 11 C-16.42499093 8.85833636 -21.08460122 10.14482925 -26.984375 12.9296875 C-29.21425933 14.07083997 -29.21425933 14.07083997 -32 16 C-32.75 13.8125 -32.75 13.8125 -33 11 C-30.80715892 7.50769754 -28.80581381 5.52121546 -25 4 C-22.55810547 3.75708008 -22.55810547 3.75708008 -19.8671875 3.76953125 C-18.41119141 3.77243164 -18.41119141 3.77243164 -16.92578125 3.77539062 C-15.41564453 3.79375977 -15.41564453 3.79375977 -13.875 3.8125 C-12.35326172 3.8134668 -12.35326172 3.8134668 -10.80078125 3.81445312 C-3.28097625 3.85951188 -3.28097625 3.85951188 -1 5 C-0.67 3.35 -0.34 1.7 0 0 Z " fill="#FBBD49" transform="translate(57,45)"/>
<path d="M0 0 C0.99 0.495 0.99 0.495 2 1 C2.59765625 3.58984375 2.59765625 3.58984375 3.0625 6.9375 C3.2275 8.10667969 3.3925 9.27585937 3.5625 10.48046875 C4.04627948 14.37230189 4.44493426 18.26243355 4.75390625 22.171875 C4.81405559 24.01620532 4.81405559 24.01620532 6 25 C6.08700342 26.63472882 6.10701063 28.27314055 6.09765625 29.91015625 C6.09443359 30.89951172 6.09121094 31.88886719 6.08789062 32.90820312 C6.07951172 33.94912109 6.07113281 34.99003906 6.0625 36.0625 C6.05798828 37.10728516 6.05347656 38.15207031 6.04882812 39.22851562 C6.03699913 41.8190666 6.02051689 44.40950559 6 47 C8.01481734 44.98518266 7.7214027 41.20923137 8.0625 38.4375 C8.15337891 37.72658203 8.24425781 37.01566406 8.33789062 36.28320312 C8.56239503 34.52261597 8.78168397 32.76136522 9 31 C9.99 31.66 10.98 32.32 12 33 C11.79375 33.78375 11.5875 34.5675 11.375 35.375 C11.25125 36.24125 11.1275 37.1075 11 38 C11.66 38.66 12.32 39.32 13 40 C12.34 40.66 11.68 41.32 11 42 C10.35196344 44.48785831 10.35196344 44.48785831 9.9375 47.3125 C9.78152344 48.25738281 9.62554687 49.20226562 9.46484375 50.17578125 C9.31144531 51.10777344 9.15804687 52.03976563 9 53 C8.14382022 57.71235955 8.14382022 57.71235955 7 60 C6.64830932 61.32860925 6.31229724 62.66158328 6 64 C4.0305952 60.64436121 3.57096503 57.72215493 3.18359375 53.87109375 C3.05919922 52.67033203 2.93480469 51.46957031 2.80664062 50.23242188 C2.68482422 48.98009766 2.56300781 47.72777344 2.4375 46.4375 C2.31181641 45.21224609 2.18613281 43.98699219 2.05664062 42.72460938 C1.69297383 39.1507739 1.34590978 35.57559062 1 32 C0.89776123 31.02264893 0.79552246 30.04529785 0.69018555 29.03833008 C0.04285044 22.61133986 -0.12199053 16.26951084 -0.0625 9.8125 C-0.05573242 8.38454102 -0.05573242 8.38454102 -0.04882812 6.92773438 C-0.03722353 4.61841902 -0.02090252 2.30924663 0 0 Z " fill="#EFB33E" transform="translate(94,42)"/>
<path d="M0 0 C0.66 0.66 1.32 1.32 2 2 C1.86328125 3.82348633 1.86328125 3.82348633 1.3125 6.01953125 C1.11140625 6.82471191 0.9103125 7.62989258 0.703125 8.45947266 C-0.43411703 12.56854925 -1.68603966 16.63178579 -3 20.6875 C-3.26039063 21.50283203 -3.52078125 22.31816406 -3.7890625 23.15820312 C-4.87158009 26.53970379 -5.97125771 29.91407998 -7.09765625 33.28125 C-7.92702142 35.78011647 -8.6960093 38.28640455 -9.4375 40.8125 C-10.85567692 45.57815036 -12.40183216 50.29214414 -14 55 C-14.33 55.99 -14.66 56.98 -15 58 C-16.31787285 59.02028865 -17.65210653 60.01971384 -19 61 C-19.66 61.99 -20.32 62.98 -21 64 C-20.60782835 57.40069768 -19.48788457 52.11604956 -17 46 C-16.62033354 44.34327363 -16.26239024 42.67929755 -16 41 C-15.34 41 -14.68 41 -14 41 C-12.43098141 34.01466204 -12.43098141 34.01466204 -11 27 C-10.34 27 -9.68 27 -9 27 C-9.33 26.01 -9.66 25.02 -10 24 C-9.34 24 -8.68 24 -8 24 C-8.33 23.01 -8.66 22.02 -9 21 C-8.34 21 -7.68 21 -7 21 C-6.82984375 20.32195312 -6.6596875 19.64390625 -6.484375 18.9453125 C-4.780614 12.40214525 -2.65633189 6.21608631 0 0 Z M-10 31 C-9 33 -9 33 -9 33 Z " fill="#FCD240" transform="translate(184,60)"/>
<path d="M0 0 C1.32 0 2.64 0 4 0 C1.65584425 7.45867737 -4.93191985 11.67891806 -10.8125 16.375 C-12.24553901 17.53162675 -13.67783989 18.68916866 -15.109375 19.84765625 C-15.78677734 20.39566895 -16.46417969 20.94368164 -17.16210938 21.50830078 C-28.1147378 30.3978544 -36.38784381 40.91165423 -45 52 C-45.66 51.34 -46.32 50.68 -47 50 C-45.12913295 43.88850098 -42.40094958 41.35731555 -37.15625 37.7734375 C-34.6939594 35.74829269 -33.60083721 33.74194681 -32 31 C-30.4259877 29.24457611 -28.79726254 27.53709681 -27.125 25.875 C-26.28195313 25.02679688 -25.43890625 24.17859375 -24.5703125 23.3046875 C-22.1544778 21.13851353 -19.80082469 19.61059228 -17 18 C-16.278125 17.278125 -15.55625 16.55625 -14.8125 15.8125 C-14.214375 15.214375 -13.61625 14.61625 -13 14 C-12.34 14 -11.68 14 -11 14 C-11 13.34 -11 12.68 -11 12 C-10.01 12 -9.02 12 -8 12 C-7.67 11.01 -7.34 10.02 -7 9 C-6.34 9 -5.68 9 -5 9 C-5 8.34 -5 7.68 -5 7 C-4.360625 6.773125 -3.72125 6.54625 -3.0625 6.3125 C-0.72806339 5.14749104 -0.72806339 5.14749104 -0.25 2.375 C-0.1675 1.59125 -0.085 0.8075 0 0 Z " fill="#F9A156" transform="translate(215,126)"/>
<path d="M0 0 C0.33 0 0.66 0 1 0 C1 2.31 1 4.62 1 7 C1.66 7 2.32 7 3 7 C3.33 8.98 3.66 10.96 4 13 C4.66 13 5.32 13 6 13 C6.08302368 13.95253662 6.08302368 13.95253662 6.16772461 14.92431641 C6.42190369 17.82476151 6.67967067 20.72487719 6.9375 23.625 C7.02451172 24.62402344 7.11152344 25.62304688 7.20117188 26.65234375 C7.55971318 30.66269464 7.9154173 34.56896275 8.69140625 38.5234375 C9 41 9 41 7 44 C2.15136813 33.61007457 0.53709107 23.74097718 0.3125 12.3125 C0.27833984 11.12205078 0.24417969 9.93160156 0.20898438 8.70507812 C0.12741334 5.80347982 0.05797252 2.9021492 0 0 Z " fill="#E2991E" transform="translate(61,64)"/>
<path d="M0 0 C0 0.66 0 1.32 0 2 C0.57234375 1.84144531 1.1446875 1.68289062 1.734375 1.51953125 C8.28932718 0.01641291 13.48980351 0.72171101 19.37109375 3.9296875 C21 5 21 5 23 7 C23.66 6.67 24.32 6.34 25 6 C25 8.97 25 11.94 25 15 C23 14 23 14 21 12 C21 11.01 21 10.02 21 9 C17.95086772 7.98888907 17.95086772 7.98888907 15 9 C12.6505947 8.39239518 10.31470912 7.72870472 8 7 C8 6.67 8 6.34 8 6 C9.65 5.67 11.3 5.34 13 5 C5.51921698 2.50640566 -0.15961027 4.91700745 -7 8 C-7 5 -7 5 -4.625 2.3125 C-2 0 -2 0 0 0 Z " fill="#FDDB42" transform="translate(34,51)"/>
<path d="M0 0 C0.66 0.33 1.32 0.66 2 1 C1.69296143 1.83547363 1.38592285 2.67094727 1.06958008 3.53173828 C-0.09579793 6.70375496 -1.26060219 9.8759812 -2.42504883 13.04833984 C-2.9241767 14.40779604 -3.4235174 15.76717411 -3.9230957 17.12646484 C-4.40844727 18.44712943 -4.89348288 19.76791017 -5.37820435 21.08880615 C-5.8633309 22.41058312 -6.34923285 23.73207575 -6.83590698 25.05328369 C-8.05936726 28.38535009 -9.2566415 31.72357149 -10.40869141 35.08105469 C-10.63285233 35.72871796 -10.85701324 36.37638123 -11.08796692 37.04367065 C-11.70270109 38.82649927 -12.30924631 40.61214541 -12.9152832 42.39794922 C-14 45 -14 45 -16 46 C-15.34482135 40.51833862 -14.12976022 35.36946683 -12.625 30.0625 C-12.41617188 29.30259766 -12.20734375 28.54269531 -11.9921875 27.75976562 C-10.58186485 22.72474177 -8.89597704 17.87299363 -7 13 C-6.34 13 -5.68 13 -5 13 C-4.87625 12.29875 -4.7525 11.5975 -4.625 10.875 C-3.96161655 7.82343613 -3.02788045 4.94659062 -2 2 C-1.34 2 -0.68 2 0 2 C0 1.34 0 0.68 0 0 Z " fill="#FAAE4E" transform="translate(182,59)"/>
<path d="M0 0 C0.33 0 0.66 0 1 0 C1.33021292 6.05390358 0.63275572 11.51680773 -0.5 17.4375 C-1.70336315 23.73827086 -2.30672006 29.55887881 -2 36 C-2.99 36.495 -2.99 36.495 -4 37 C-4.91031272 39.34386809 -4.91031272 39.34386809 -5.625 42.0625 C-5.88539063 42.98160156 -6.14578125 43.90070313 -6.4140625 44.84765625 C-6.60742188 45.55792969 -6.80078125 46.26820312 -7 47 C-7.33 47 -7.66 47 -8 47 C-8.15530385 40.8866758 -7.58847311 35.15717948 -6.625 29.125 C-6.48779541 28.24457031 -6.35059082 27.36414063 -6.20922852 26.45703125 C-3.63818971 10.17127227 -3.63818971 10.17127227 -1 5 C-0.62331656 3.34259285 -0.27942455 1.67654729 0 0 Z " fill="#EFAD3B" transform="translate(141,31)"/>
<path d="M0 0 C0.33 1.32 0.66 2.64 1 4 C1.66 4 2.32 4 3 4 C3.16356156 10.69920873 2.57602131 16.9561169 1.5 23.5625 C1.35691406 24.47580078 1.21382813 25.38910156 1.06640625 26.33007812 C0.71703202 28.55442736 0.36148178 30.7775921 0 33 C-2.22144216 29.00272771 -2.30554593 25.49078909 -2.25 21 C-2.24613281 20.25049072 -2.24226563 19.50098145 -2.23828125 18.72875977 C-2.14040995 12.36100859 -1.34414603 6.22867669 0 0 Z " fill="#D6901A" transform="translate(101,60)"/>
<path d="M0 0 C0.66 0.33 1.32 0.66 2 1 C1.34 2.98 0.68 4.96 0 7 C-0.99 6.67 -1.98 6.34 -3 6 C-4.70609083 8.77562162 -4.70609083 8.77562162 -4.6875 11.9375 C-4.460625 12.618125 -4.23375 13.29875 -4 14 C-2.71815347 18.61464753 -3.28696525 22.32566107 -4 27 C-4.66 27 -5.32 27 -6 27 C-6.66 27.66 -7.32 28.32 -8 29 C-9.39623799 20.79710183 -10.25378093 13.51501298 -6 6 C-4.1080777 3.82404865 -2.13870481 1.94859772 0 0 Z " fill="#E89A27" transform="translate(68,33)"/>
<path d="M0 0 C0.94875 0.03609375 1.8975 0.0721875 2.875 0.109375 C3.926875 0.17898437 3.926875 0.17898437 5 0.25 C4.67 0.91 4.34 1.57 4 2.25 C2.6696875 2.1571875 2.6696875 2.1571875 1.3125 2.0625 C-2.41733882 2.27362295 -3.90827752 3.26812661 -7 5.25 C-8.17949219 5.42789063 -8.17949219 5.42789063 -9.3828125 5.609375 C-12.62964435 6.4041219 -13.94656486 7.7311672 -16.3125 10.0625 C-20.3321481 13.79983167 -23.90887077 16.19568469 -29 18.25 C-29.66 17.92 -30.32 17.59 -31 17.25 C-28.34215068 15.15522366 -25.67221298 13.07641175 -23 11 C-22.25621094 10.41347656 -21.51242188 9.82695313 -20.74609375 9.22265625 C-8.29337071 -0.41466854 -8.29337071 -0.41466854 0 0 Z " fill="#F9A553" transform="translate(202,99.75)"/>
<path d="M0 0 C0.33 0 0.66 0 1 0 C1.66 6.93 2.32 13.86 3 21 C5.01481734 18.98518266 4.7214027 15.20923137 5.0625 12.4375 C5.15337891 11.72658203 5.24425781 11.01566406 5.33789062 10.28320312 C5.56239503 8.52261597 5.78168397 6.76136522 6 5 C6.99 5.66 7.98 6.32 9 7 C8.79375 7.78375 8.5875 8.5675 8.375 9.375 C8.25125 10.24125 8.1275 11.1075 8 12 C8.66 12.66 9.32 13.32 10 14 C9.34 14.66 8.68 15.32 8 16 C7.38943913 18.02213278 6.85636005 20.06827978 6.375 22.125 C5.98441406 23.76855469 5.98441406 23.76855469 5.5859375 25.4453125 C5.39257812 26.28835937 5.19921875 27.13140625 5 28 C4.01 27.67 3.02 27.34 2 27 C-1.66486125 19.6702775 -0.14880878 8.10181112 0 0 Z " fill="#E1A02F" transform="translate(97,68)"/>
<path d="M0 0 C0.99 0.66 1.98 1.32 3 2 C1.68 2 0.36 2 -1 2 C-1.66 3.65 -2.32 5.3 -3 7 C-3.66 7 -4.32 7 -5 7 C-5.12117188 8.27617188 -5.24234375 9.55234375 -5.3671875 10.8671875 C-5.53599491 12.53650526 -5.7052911 14.20577365 -5.875 15.875 C-5.95363281 16.71675781 -6.03226563 17.55851562 -6.11328125 18.42578125 C-6.23896484 19.63427734 -6.23896484 19.63427734 -6.3671875 20.8671875 C-6.44050293 21.61081543 -6.51381836 22.35444336 -6.58935547 23.12060547 C-7 25 -7 25 -9 27 C-10.90268707 25.09731293 -10.17427843 21.84310855 -10.1875 19.3125 C-10.20167969 18.09175781 -10.21585938 16.87101562 -10.23046875 15.61328125 C-9.90043476 10.43901952 -8.9699011 7.11911666 -5.5625 3.1875 C-3 1 -3 1 0 0 Z " fill="#F89D51" transform="translate(36,55)"/>
<path d="M0 0 C1.71890847 1.77831774 3.24749273 3.60147668 4.73828125 5.57421875 C5.15464844 6.04472656 5.57101563 6.51523437 6 7 C6.66 7 7.32 7 8 7 C8 9.64 8 12.28 8 15 C7.67 14.34 7.34 13.68 7 13 C6.34 12.67 5.68 12.34 5 12 C3.92405935 9.97879976 3.02152534 7.90710199 2.09765625 5.8125 C1.06201927 3.66085901 1.06201927 3.66085901 -2 3 C-2.33 2.34 -2.66 1.68 -3 1 C-8.94065578 -0.8362027 -14.81599033 -1.51845826 -21 -2 C-21 -2.33 -21 -2.66 -21 -3 C-13.886289 -5.06527094 -6.34692019 -3.59259633 0 0 Z " fill="#FCC248" transform="translate(94,32)"/>
<path d="M0 0 C0 3 0 3 -0.5 6.25 C-0.98472246 9.88541845 -1.07473518 13.33797604 -1 17 C-1.66 17 -2.32 17 -3 17 C-5.43160605 13.63316085 -6 12.26649636 -6 8 C-6.66 8 -7.32 8 -8 8 C-8 8.66 -8 9.32 -8 10 C-8.66 10 -9.32 10 -10 10 C-9.32942834 7.06624899 -8.5040235 5.38058917 -6.0859375 3.5546875 C-4.08267818 2.3159229 -2.06666551 1.12945673 0 0 Z " fill="#ECA83E" transform="translate(117,15)"/>
<path d="M0 0 C0.66 0.33 1.32 0.66 2 1 C1.43504735 3.44311972 0.84918242 5.87776248 0.25 8.3125 C0.09273437 9.00279297 -0.06453125 9.69308594 -0.2265625 10.40429688 C-1.01318046 13.53564144 -1.70088608 15.68712684 -3.953125 18.04296875 C-6 19 -6 19 -9 18 C-8.24123547 15.8706608 -7.4675766 13.74662427 -6.6875 11.625 C-6.25824219 10.44164063 -5.82898438 9.25828125 -5.38671875 8.0390625 C-4 5 -4 5 -1 3 C-0.67 2.01 -0.34 1.02 0 0 Z " fill="#F2B543" transform="translate(165,107)"/>
<path d="M0 0 C3.12543966 4.68815949 3.33265341 9.93500369 4.1875 15.4375 C4.37763672 16.58283203 4.56777344 17.72816406 4.76367188 18.90820312 C4.93833984 20.00970703 5.11300781 21.11121094 5.29296875 22.24609375 C5.4530542 23.25341553 5.61313965 24.2607373 5.77807617 25.29858398 C5.98865893 27.86194837 5.80284057 29.57995255 5 32 C4.80664062 31.34773438 4.61328125 30.69546875 4.4140625 30.0234375 C4.15367188 29.14945313 3.89328125 28.27546875 3.625 27.375 C3.36976562 26.51648438 3.11453125 25.65796875 2.8515625 24.7734375 C2.02763205 21.96986439 2.02763205 21.96986439 0.90625 19.1875 C-0.21809329 15.23291327 -0.22096925 11.7073843 -0.125 7.625 C-0.11597656 6.88894531 -0.10695312 6.15289062 -0.09765625 5.39453125 C-0.07430144 3.5962112 -0.03843836 1.79806089 0 0 Z " fill="#C57D12" transform="translate(62,74)"/>
<path d="M0 0 C3.72581554 1.29970309 5.79887275 3.5611856 7.6875 6.9375 C8.26475379 9.93101831 8.16713263 12.77839994 8 15.8125 C7.96616211 16.988125 7.96616211 16.988125 7.93164062 18.1875 C7.87318018 20.1050026 7.78351283 22.0215106 7.6875 23.9375 C7.3575 23.9375 7.0275 23.9375 6.6875 23.9375 C6.58953125 23.14085938 6.4915625 22.34421875 6.390625 21.5234375 C5.08639119 12.28136687 2.5219752 7.39228213 -4.3125 0.9375 C-2.3125 -0.0625 -2.3125 -0.0625 0 0 Z M4.6875 7.9375 C5.6875 9.9375 5.6875 9.9375 5.6875 9.9375 Z " fill="#FBC035" transform="translate(215.3125,100.0625)"/>
<path d="M0 0 C0.33 0 0.66 0 1 0 C1.05399736 1.45792884 1.09279177 2.91642712 1.125 4.375 C1.14820312 5.18710937 1.17140625 5.99921875 1.1953125 6.8359375 C1 9 1 9 -1 11 C-1.495 10.54625 -1.99 10.0925 -2.5 9.625 C-8.80875614 5.52430851 -14.87937346 5.78026305 -22 7 C-22 6.34 -22 5.68 -22 5 C-18.2776599 3.75921997 -14.81203967 3.85444541 -10.9375 3.875 C-10.20466797 3.87113281 -9.47183594 3.86726563 -8.71679688 3.86328125 C-3.25336982 3.87331509 -3.25336982 3.87331509 -1 5 C-0.67 3.35 -0.34 1.7 0 0 Z " fill="#FFF253" transform="translate(57,45)"/>
<path d="M0 0 C-3.67410785 1.17571451 -7.16929183 1.07366746 -11 1 C-11.33 3.64 -11.66 6.28 -12 9 C-13.9375 8.375 -13.9375 8.375 -16 7 C-17.40540541 1.81081081 -17.40540541 1.81081081 -16 -1 C-10.31632113 -2.89455962 -5.50196983 -2.14711018 0 0 Z " fill="#F2B43D" transform="translate(176,35)"/>
<path d="M0 0 C0.33 0 0.66 0 1 0 C1.14489194 5.80884955 0.66678801 11.16520033 -0.375 16.875 C-0.56449219 18.01195312 -0.56449219 18.01195312 -0.7578125 19.171875 C-1.75043966 24.75043966 -1.75043966 24.75043966 -4 27 C-4.72843014 17.44947153 -2.5571371 9.09838514 0 0 Z " fill="#E09D2E" transform="translate(136,65)"/>
<path d="M0 0 C4.13574106 0.15906696 6.48581683 0.63112947 9.875 3.0625 C12.64428914 6.89063498 12.76252516 9.32966152 13 14 C11.6536592 11.9804888 10.34146182 9.93784165 9.0625 7.875 C7.25223413 4.75823926 7.25223413 4.75823926 4 4 C4.66 4.66 5.32 5.32 6 6 C5.01 6 4.02 6 3 6 C0.8125 3.5 0.8125 3.5 -1 1 C-0.67 0.67 -0.34 0.34 0 0 Z " fill="#FAB82D" transform="translate(135,15)"/>
<path d="M0 0 C0.33 0 0.66 0 1 0 C3.60994264 9.21510516 3.60994264 9.21510516 1 14 C1 14.66 1 15.32 1 16 C0.01 15.67 -0.98 15.34 -2 15 C-3.34764398 6.16544503 -3.34764398 6.16544503 -2 2 C-1.34 1.34 -0.68 0.68 0 0 Z " fill="#F0A82D" transform="translate(68,49)"/>
<path d="M0 0 C6.98942918 -0.602537 6.98942918 -0.602537 9.8671875 1.11328125 C11.30861002 2.33745588 12.66278229 3.66278229 14 5 C14.66 4.34 15.32 3.68 16 3 C16 5.31 16 7.62 16 10 C15.01 10 14.02 10 13 10 C11.84391872 8.51360979 10.68854149 7.02665813 9.5390625 5.53515625 C6.82742445 2.83040053 3.61398616 2.10257205 0 1 C0 0.67 0 0.34 0 0 Z " fill="#F9B328" transform="translate(87,27)"/>
<path d="M0 0 C0.33 0 0.66 0 1 0 C1.0984702 4.13574827 0.77403558 7.93631321 0 12 C-0.66 12 -1.32 12 -2 12 C-2.66 12.66 -3.32 13.32 -4 14 C-4.19551338 12.39679026 -4.38111983 10.79237014 -4.5625 9.1875 C-4.71912109 7.84751953 -4.71912109 7.84751953 -4.87890625 6.48046875 C-5 4 -5 4 -4 1 C-3.01 1.99 -2.02 2.98 -1 4 C-0.67 2.68 -0.34 1.36 0 0 Z " fill="#F1B535" transform="translate(60,62)"/>
<path d="M0 0 C0.99 0.495 0.99 0.495 2 1 C3.95156113 8.87852456 4.29136943 16.92259196 4 25 C1.91229131 21.86843697 1.69366683 20.68698814 1.4375 17.0625 C1.256531 14.61387869 1.08413936 12.32965047 0.4765625 9.94921875 C-0.33090548 6.64654232 -0.05645662 3.38739716 0 0 Z " fill="#E9A53D" transform="translate(94,42)"/>
<path d="M0 0 C1.97265625 0.265625 1.97265625 0.265625 4.97265625 2.265625 C4.13734375 2.37777344 4.13734375 2.37777344 3.28515625 2.4921875 C-3.11628245 3.59513809 -7.15006916 6.03953966 -12.02734375 10.265625 C-12.02734375 9.275625 -12.02734375 8.285625 -12.02734375 7.265625 C-11.36734375 7.265625 -10.70734375 7.265625 -10.02734375 7.265625 C-9.73859375 6.481875 -9.44984375 5.698125 -9.15234375 4.890625 C-7.05139336 -0.01159258 -5.1071092 0.03818399 0 0 Z " fill="#F9B949" transform="translate(43.02734375,54.734375)"/>
<path d="M0 0 C4.43936951 1.35647402 6.4156882 3.16808939 9 7 C11.13492839 11.05636393 11.17820671 14.45572879 11 19 C8.16346212 16.16346212 7.78838868 13.02992888 6.78125 9.21484375 C6.22613754 6.82359908 6.22613754 6.82359908 4 6 C4 5.01 4 4.02 4 3 C2.68 2.34 1.36 1.68 0 1 C0 0.67 0 0.34 0 0 Z " fill="#FEF052" transform="translate(137,17)"/>
<path d="M0 0 C0.66 0.33 1.32 0.66 2 1 C1.34 2.98 0.68 4.96 0 7 C-0.99 6.67 -1.98 6.34 -3 6 C-6.08467498 11.39459439 -7.55643705 15.79011871 -8 22 C-8.33 22 -8.66 22 -9 22 C-9.41331873 15.24912742 -9.14410483 9.61612057 -4.46484375 4.234375 C-3.02301173 2.77550005 -1.51619885 1.38142562 0 0 Z " fill="#EF944A" transform="translate(68,33)"/>
<path d="M0 0 C0.33 0 0.66 0 1 0 C1.3893647 2.60275329 1.76193662 5.20606349 2.125 7.8125 C2.23714844 8.55048828 2.34929687 9.28847656 2.46484375 10.04882812 C3.2265625 15.66015625 3.2265625 15.66015625 1 19 C-0.97867147 17.02132853 -0.45353353 13.3382048 -0.625 10.625 C-0.6765625 9.93921875 -0.728125 9.2534375 -0.78125 8.546875 C-0.99271869 5.34996594 -1.0235314 3.07059421 0 0 Z " fill="#FBCD43" transform="translate(98,48)"/>
<path d="M0 0 C-3 2 -3 2 -6.0625 3.3125 C-9.46725103 5.2684208 -9.8782738 6.35438985 -11 10 C-11.66 10.66 -12.32 11.32 -13 12 C-13.75 9.8125 -13.75 9.8125 -14 7 C-10.23625978 1.0058952 -6.90126146 -0.3136937 0 0 Z " fill="#F9B428" transform="translate(38,49)"/>
<path d="M0 0 C0.66 0.33 1.32 0.66 2 1 C2.77811718 4.81984796 3.24386556 7.26840331 2 11 C1.34 11 0.68 11 0 11 C-0.33 8.69 -0.66 6.38 -1 4 C-2.65 4.66 -4.3 5.32 -6 6 C-6 5.34 -6 4.68 -6 4 C-4.03852126 2.61061923 -2.03833424 1.2739589 0 0 Z " fill="#EBA338" transform="translate(158,35)"/>
<path d="M0 0 C1.32 0 2.64 0 4 0 C4.33 3.3 4.66 6.6 5 10 C2.5 8.9375 2.5 8.9375 0 7 C-0.3125 3.3125 -0.3125 3.3125 0 0 Z " fill="#F0B43E" transform="translate(68,35)"/>
<path d="M0 0 C0.33 0 0.66 0 1 0 C1.55992558 2.22465057 2.09727454 4.45499185 2.625 6.6875 C2.92664063 7.92886719 3.22828125 9.17023437 3.5390625 10.44921875 C4.0172926 14.13321167 3.71644584 15.77085909 2 19 C1.34 19 0.68 19 0 19 C0 12.73 0 6.46 0 0 Z " fill="#FBBE49" transform="translate(145,29)"/>
<path d="M0 0 C9.57668161 -0.76681614 9.57668161 -0.76681614 13.06640625 1.11328125 C14.6875 2.5 14.6875 2.5 17 5 C16.67 5.99 16.34 6.98 16 8 C16 7.34 16 6.68 16 6 C10.8185816 3.31333861 6.93942843 1.72374751 1 2 C0.67 1.34 0.34 0.68 0 0 Z " fill="#FCD34C" transform="translate(75,32)"/>
<path d="M0 0 C0.66 0 1.32 0 2 0 C2.22245393 1.60226955 2.42746669 3.20696767 2.625 4.8125 C2.74101563 5.70582031 2.85703125 6.59914063 2.9765625 7.51953125 C3 10 3 10 1 13 C-1 11 -1 11 -1.23046875 8.65234375 C-1.21628906 7.75644531 -1.20210938 6.86054688 -1.1875 5.9375 C-1.18105469 5.03902344 -1.17460938 4.14054687 -1.16796875 3.21484375 C-1 1 -1 1 0 0 Z " fill="#F1B83F" transform="translate(116,19)"/>
<path d="M0 0 C2.18994248 3.28491373 2.35277339 4.83095639 2.625 8.6875 C2.69976562 9.68136719 2.77453125 10.67523438 2.8515625 11.69921875 C2.92503906 12.83810547 2.92503906 12.83810547 3 14 C2.01 14.66 1.02 15.32 0 16 C0 10.72 0 5.44 0 0 Z " fill="#CE8614" transform="translate(62,74)"/>
<path d="M0 0 C1.485 0.99 1.485 0.99 3 2 C2.79375 2.78375 2.5875 3.5675 2.375 4.375 C2.25125 5.24125 2.1275 6.1075 2 7 C2.66 7.66 3.32 8.32 4 9 C3.34 9.66 2.68 10.32 2 11 C1.67 11.99 1.34 12.98 1 14 C0.67 14 0.34 14 0 14 C0 9.38 0 4.76 0 0 Z " fill="#EDAB2A" transform="translate(103,73)"/>
<path d="M0 0 C-0.55171875 0.26554687 -1.1034375 0.53109375 -1.671875 0.8046875 C-4.27039525 2.13882709 -6.75122955 3.61258631 -9.25 5.125 C-10.14203125 5.66382813 -11.0340625 6.20265625 -11.953125 6.7578125 C-12.62859375 7.16773438 -13.3040625 7.57765625 -14 8 C-10.91525249 1.35592844 -7.33844657 -0.57556444 0 0 Z " fill="#FAB425" transform="translate(76,27)"/>
<path d="M0 0 C4 0 4 0 5.70703125 1.640625 C7.25032268 4.45678218 7.49736302 6.55569879 7.6875 9.75 C7.78611328 11.22726563 7.78611328 11.22726563 7.88671875 12.734375 C7.92410156 13.48203125 7.96148437 14.2296875 8 15 C6.73424999 12.52282402 5.62230012 10.08038291 4.5625 7.5 C3.26217217 4.58726566 2.03245331 2.41958727 0 0 Z " fill="#FDD24F" transform="translate(176,38)"/>
<path d="M0 0 C0.33 0.99 0.66 1.98 1 3 C1.66 3 2.32 3 3 3 C3.96070434 5.88211302 4.10581883 7.69850044 4.0625 10.6875 C4.05347656 11.49574219 4.04445313 12.30398437 4.03515625 13.13671875 C4.02355469 13.75160156 4.01195312 14.36648437 4 15 C1.46980628 10.05655429 -0.33180298 5.64065066 0 0 Z " fill="#F0AD28" transform="translate(57,76)"/>
<path d="M0 0 C0 0.99 0 1.98 0 3 C-0.66 3 -1.32 3 -2 3 C-2.268125 3.639375 -2.53625 4.27875 -2.8125 4.9375 C-4 7 -4 7 -7 8 C-7 5 -7 5 -4.625 2.3125 C-2 0 -2 0 0 0 Z " fill="#FDDE50" transform="translate(34,51)"/>
<path d="M0 0 C3.4375 1 3.4375 1 6 2 C2.45049966 3.16306443 -0.55823948 2.92365049 -4.25 2.5625 C-5.32765625 2.46066406 -6.4053125 2.35882813 -7.515625 2.25390625 C-8.33546875 2.17011719 -9.1553125 2.08632813 -10 2 C-6.26935156 -0.48709896 -4.42368032 -0.29991053 0 0 Z " fill="#F7A552" transform="translate(170,33)"/>
<path d="M0 0 C1.125 1.5625 1.125 1.5625 2 4 C1.125 7.75 1.125 7.75 0 11 C-0.99 11 -1.98 11 -3 11 C-2.32829194 7.1936543 -1.27253436 3.64793184 0 0 Z " fill="#FBC43F" transform="translate(175,89)"/>
<path d="M0 0 C0.33 0 0.66 0 1 0 C1 2.31 1 4.62 1 7 C-2.90432869 7 -5.38026598 6.31626692 -9 5 C-9 4.67 -9 4.34 -9 4 C-3.25 3.875 -3.25 3.875 -1 5 C-0.67 3.35 -0.34 1.7 0 0 Z " fill="#FAB52B" transform="translate(57,45)"/>
<path d="M0 0 C4.875 2.625 4.875 2.625 6 6 C5.34 6.66 4.68 7.32 4 8 C2.35 5.69 0.7 3.38 -1 1 C-0.67 0.67 -0.34 0.34 0 0 Z " fill="#FEE84C" transform="translate(215,102)"/>
<path d="M0 0 C0.33 0 0.66 0 1 0 C1.16682272 4.92127034 1.24828052 8.50343896 -1 13 C-1.33 13 -1.66 13 -2 13 C-1.85769192 11.58297487 -1.71099254 10.1663904 -1.5625 8.75 C-1.48128906 7.96109375 -1.40007812 7.1721875 -1.31640625 6.359375 C-1.02365007 4.17635361 -0.57935581 2.1226818 0 0 Z " fill="#CD8B1A" transform="translate(134,79)"/>
<path d="M0 0 C0.66 0 1.32 0 2 0 C2 1.32 2 2.64 2 4 C-1 6.25 -1 6.25 -4 8 C-4 7.01 -4 6.02 -4 5 C-3.34 5 -2.68 5 -2 5 C-1.34 3.35 -0.68 1.7 0 0 Z " fill="#FBAC4D" transform="translate(35,57)"/>
<path d="M0 0 C5.53846154 0.61538462 5.53846154 0.61538462 7.875 2.5625 C8.431875 3.2740625 8.431875 3.2740625 9 4 C8.67 4.99 8.34 5.98 8 7 C2.25 2.25 2.25 2.25 0 0 Z " fill="#FCD14D" transform="translate(129,17)"/>
<path d="M0 0 C2 2 2 2 2.3125 5 C2.209375 5.99 2.10625 6.98 2 8 C1.01 8.66 0.02 9.32 -1 10 C-0.67 6.7 -0.34 3.4 0 0 Z " fill="#EB9B33" transform="translate(102,47)"/>
<path d="M0 0 C4.55384615 -0.36923077 4.55384615 -0.36923077 6.8125 1.5 C7.204375 1.995 7.59625 2.49 8 3 C7.67 3.99 7.34 4.98 7 6 C6.401875 5.34 5.80375 4.68 5.1875 4 C3.12498166 1.6626154 3.12498166 1.6626154 0 2 C0 1.34 0 0.68 0 0 Z " fill="#FCCB4F" transform="translate(208,103)"/>
<path d="M0 0 C0.66 0.33 1.32 0.66 2 1 C1.34 2.98 0.68 4.96 0 7 C-1.65 6.67 -3.3 6.34 -5 6 C-3.35 4.02 -1.7 2.04 0 0 Z " fill="#F0A243" transform="translate(68,33)"/>
<path d="M0 0 C0.33 0 0.66 0 1 0 C1 4.62 1 9.24 1 14 C0.67 14 0.34 14 0 14 C0 9.38 0 4.76 0 0 Z " fill="#FBC12E" transform="translate(29,117)"/>
<path d="M0 0 C3.63 0 7.26 0 11 0 C11 0.33 11 0.66 11 1 C7.37 1 3.74 1 0 1 C0 0.67 0 0.34 0 0 Z " fill="#FBBB4A" transform="translate(196,98)"/>
<path d="M0 0 C0.33 0 0.66 0 1 0 C1 3.3 1 6.6 1 10 C0.67 10 0.34 10 0 10 C0 6.7 0 3.4 0 0 Z " fill="#FDDC4B" transform="translate(31,141)"/>
<path d="M0 0 C0.33 0 0.66 0 1 0 C1 3.3 1 6.6 1 10 C0.67 10 0.34 10 0 10 C0 6.7 0 3.4 0 0 Z " fill="#FCD33C" transform="translate(30,131)"/>
<path d="M0 0 C0.33 0 0.66 0 1 0 C1 3.3 1 6.6 1 10 C0.67 10 0.34 10 0 10 C0 6.7 0 3.4 0 0 Z " fill="#FFDF41" transform="translate(186,47)"/>
<path d="M0 0 C3.3 0 6.6 0 10 0 C10 0.33 10 0.66 10 1 C6.7 1 3.4 1 0 1 C0 0.67 0 0.34 0 0 Z " fill="#FDDD4F" transform="translate(162,31)"/>
<path d="M0 0 C2.64 0 5.28 0 8 0 C8 0.33 8 0.66 8 1 C5.36 1 2.72 1 0 1 C0 0.67 0 0.34 0 0 Z " fill="#FAB425" transform="translate(98,227)"/>
<path d="M0 0 C2.64 0 5.28 0 8 0 C8 0.33 8 0.66 8 1 C5.36 1 2.72 1 0 1 C0 0.67 0 0.34 0 0 Z " fill="#FBBA3C" transform="translate(106,226)"/>
<path d="M0 0 C0.33 0 0.66 0 1 0 C1 2.31 1 4.62 1 7 C0.67 7 0.34 7 0 7 C0 4.69 0 2.38 0 0 Z " fill="#FCC54B" transform="translate(32,151)"/>
<path d="M0 0 C0.33 0 0.66 0 1 0 C1 1.98 1 3.96 1 6 C0.67 6 0.34 6 0 6 C0 4.02 0 2.04 0 0 Z " fill="#FCC64B" transform="translate(33,158)"/>
<path d="M0 0 C0.66 0.33 1.32 0.66 2 1 C0.02 1.99 0.02 1.99 -2 3 C-1.34 2.01 -0.68 1.02 0 0 Z " fill="#FDD84E" transform="translate(155,34)"/>
<path d="M0 0 C1.65 0 3.3 0 5 0 C5 0.33 5 0.66 5 1 C3.35 1 1.7 1 0 1 C0 0.67 0 0.34 0 0 Z " fill="#FCCC37" transform="translate(114,225)"/>
<path d="M0 0 C0.33 0 0.66 0 1 0 C1 1.65 1 3.3 1 5 C0.67 5 0.34 5 0 5 C0 3.35 0 1.7 0 0 Z " fill="#F9B542" transform="translate(27,106)"/>
<path d="M0 0 C0.33 0 0.66 0 1 0 C1 1.65 1 3.3 1 5 C0.67 5 0.34 5 0 5 C0 3.35 0 1.7 0 0 Z " fill="#F79B45" transform="translate(26,101)"/>
<path d="M0 0 C0.33 0 0.66 0 1 0 C1 1.65 1 3.3 1 5 C0.67 5 0.34 5 0 5 C0 3.35 0 1.7 0 0 Z " fill="#F89F54" transform="translate(20,75)"/>
<path d="M0 0 C4 1 4 1 4 1 Z " fill="#FCD33C" transform="translate(119,224)"/>
<path d="M0 0 C0 3 0 3 0 3 Z " fill="#FEE550" transform="translate(178,168)"/>
<path d="M0 0 C1 4 1 4 1 4 Z " fill="#F79757" transform="translate(34,164)"/>
<path d="M0 0 C0.66 0.33 1.32 0.66 2 1 C1.01 1 0.02 1 -1 1 C-0.67 0.67 -0.34 0.34 0 0 Z " fill="#FBC639" transform="translate(197,148)"/>
<path d="M0 0 C0.66 0.33 1.32 0.66 2 1 C1.01 1 0.02 1 -1 1 C-0.67 0.67 -0.34 0.34 0 0 Z " fill="#FCCB4C" transform="translate(202,144)"/>
<path d="M0 0 C0.66 0.33 1.32 0.66 2 1 C1.01 1 0.02 1 -1 1 C-0.67 0.67 -0.34 0.34 0 0 Z " fill="#FDD84E" transform="translate(208,139)"/>
<path d="M0 0 C0.66 0.33 1.32 0.66 2 1 C1.01 1 0.02 1 -1 1 C-0.67 0.67 -0.34 0.34 0 0 Z " fill="#FDD84E" transform="translate(178,109)"/>
<path d="M0 0 C1 4 1 4 1 4 Z " fill="#F79757" transform="translate(25,96)"/>
<path d="M0 0 C1 4 1 4 1 4 Z " fill="#F79757" transform="translate(24,92)"/>
<path d="M0 0 C1 4 1 4 1 4 Z " fill="#F79757" transform="translate(22,84)"/>
<path d="M0 0 C1 4 1 4 1 4 Z " fill="#F79757" transform="translate(20,68)"/>
<path d="M0 0 C0 3 0 3 0 3 Z " fill="#F9A950" transform="translate(24,61)"/>
<path d="M0 0 C0 3 0 3 0 3 Z " fill="#FBC639" transform="translate(61,37)"/>
<path d="M0 0 C0 3 0 3 0 3 Z " fill="#FCD33C" transform="translate(106,21)"/>
<path d="M0 0 C0.66 0.33 1.32 0.66 2 1 C1.01 1 0.02 1 -1 1 C-0.67 0.67 -0.34 0.34 0 0 Z " fill="#FDE247" transform="translate(112,15)"/>
<path d="M0 0 C4 1 4 1 4 1 Z " fill="#FCC843" transform="translate(117,13)"/>
<path d="M0 0 C4 1 4 1 4 1 Z " fill="#FAB425" transform="translate(121,12)"/>
<path d="" fill="#F8A252" transform="translate(0,0)"/>
<path d="" fill="#F58A5B" transform="translate(0,0)"/>
<path d="" fill="#F58A5B" transform="translate(0,0)"/>
<path d="" fill="#FBBC49" transform="translate(0,0)"/>
<path d="" fill="#FCBE4A" transform="translate(0,0)"/>
<path d="M0 0 C3 1 3 1 3 1 Z " fill="#F8A252" transform="translate(193,99)"/>
<path d="" fill="#F27164" transform="translate(0,0)"/>
<path d="" fill="#F27164" transform="translate(0,0)"/>
<path d="" fill="#F8A452" transform="translate(0,0)"/>
<path d="" fill="#FDD243" transform="translate(0,0)"/>
<path d="" fill="#FCC746" transform="translate(0,0)"/>
<path d="M0 0 C3 1 3 1 3 1 Z " fill="#FDDD43" transform="translate(114,14)"/>
<path d="M0 0 C2 1 2 1 2 1 Z " fill="#FDD84E" transform="translate(123,223)"/>
<path d="M0 0 C2 1 2 1 2 1 Z " fill="#FDD84E" transform="translate(79,223)"/>
<path d="M0 0 C2 1 2 1 2 1 Z " fill="#FDD84E" transform="translate(126,222)"/>
<path d="M0 0 C2 1 2 1 2 1 Z " fill="#FDD84E" transform="translate(76,222)"/>
<path d="M0 0 C2 1 2 1 2 1 Z " fill="#FDD84E" transform="translate(128,221)"/>
<path d="M0 0 C2 1 2 1 2 1 Z " fill="#FCBE4A" transform="translate(74,221)"/>
<path d="M0 0 C2 1 2 1 2 1 Z " fill="#FBBB49" transform="translate(72,220)"/>
<path d="M0 0 C2 1 2 1 2 1 Z " fill="#FCBE4A" transform="translate(133,218)"/>
<path d="M0 0 C2 1 2 1 2 1 Z " fill="#F79757" transform="translate(67,217)"/>
<path d="M0 0 C2 1 2 1 2 1 Z " fill="#FBBB49" transform="translate(136,216)"/>
<path d="M0 0 C2 1 2 1 2 1 Z " fill="#F79757" transform="translate(64,215)"/>
<path d="M0 0 C2 1 2 1 2 1 Z " fill="#FCBE4A" transform="translate(139,214)"/>
<path d="M0 0 C2 1 2 1 2 1 Z " fill="#FDD84E" transform="translate(143,211)"/>
<path d="" fill="#F79757" transform="translate(0,0)"/>
<path d="" fill="#FCBE4A" transform="translate(0,0)"/>
<path d="" fill="#FDD84E" transform="translate(0,0)"/>
<path d="" fill="#FCD33C" transform="translate(0,0)"/>
<path d="" fill="#FDD84E" transform="translate(0,0)"/>
<path d="" fill="#FFF253" transform="translate(0,0)"/>
<path d="" fill="#FDD84E" transform="translate(0,0)"/>
<path d="" fill="#FCD33C" transform="translate(0,0)"/>
<path d="" fill="#F79757" transform="translate(0,0)"/>
<path d="" fill="#FDD84E" transform="translate(0,0)"/>
<path d="" fill="#FCBE4A" transform="translate(0,0)"/>
<path d="" fill="#F79757" transform="translate(0,0)"/>
<path d="" fill="#FCBE4A" transform="translate(0,0)"/>
<path d="" fill="#F27164" transform="translate(0,0)"/>
<path d="" fill="#F79757" transform="translate(0,0)"/>
<path d="" fill="#FCD33C" transform="translate(0,0)"/>
<path d="M0 0 C2 1 2 1 2 1 Z " fill="#FCD33C" transform="translate(213,135)"/>
<path d="" fill="#FCBE4A" transform="translate(0,0)"/>
<path d="" fill="#FDCE45" transform="translate(0,0)"/>
<path d="" fill="#FAB425" transform="translate(0,0)"/>
<path d="M0 0 C2 1 2 1 2 1 Z " fill="#FDCE45" transform="translate(170,115)"/>
<path d="M0 0 C2 1 2 1 2 1 Z " fill="#FDCE45" transform="translate(173,113)"/>
<path d="M0 0 C2 1 2 1 2 1 Z " fill="#FFF253" transform="translate(182,106)"/>
<path d="M0 0 C2 1 2 1 2 1 Z " fill="#FDCE45" transform="translate(209,100)"/>
<path d="M0 0 C2 1 2 1 2 1 Z " fill="#FDCE45" transform="translate(207,99)"/>
<path d="" fill="#F79757" transform="translate(0,0)"/>
<path d="" fill="#FAB425" transform="translate(0,0)"/>
<path d="" fill="#FDD84E" transform="translate(0,0)"/>
<path d="" fill="#FDCE45" transform="translate(0,0)"/>
<path d="" fill="#FCD33C" transform="translate(0,0)"/>
<path d="" fill="#FAB425" transform="translate(0,0)"/>
<path d="M0 0 C2 1 2 1 2 1 Z " fill="#FCBE4A" transform="translate(176,34)"/>
<path d="M0 0 C2 1 2 1 2 1 Z " fill="#FCBE4A" transform="translate(157,33)"/>
<path d="M0 0 C2 1 2 1 2 1 Z " fill="#FDD84E" transform="translate(172,32)"/>
<path d="M0 0 C2 1 2 1 2 1 Z " fill="#FCBE4A" transform="translate(159,32)"/>
<path d="" fill="#FCBE4A" transform="translate(0,0)"/>
<path d="" fill="#FCD33C" transform="translate(0,0)"/>
<path d="M0 0 C2 1 2 1 2 1 Z " fill="#FCBE4A" transform="translate(132,15)"/>
<path d="M0 0 C2 1 2 1 2 1 Z " fill="#FFF253" transform="translate(130,14)"/>
<path d="M0 0 C2 1 2 1 2 1 Z " fill="#FCBE4A" transform="translate(126,13)"/>
<path d="" fill="#FBB848" transform="translate(0,0)"/>
<path d="" fill="#F27164" transform="translate(0,0)"/>
<path d="" fill="#F27164" transform="translate(0,0)"/>
<path d="" fill="#F27164" transform="translate(0,0)"/>
<path d="" fill="#F27164" transform="translate(0,0)"/>
<path d="" fill="#F27164" transform="translate(0,0)"/>
<path d="" fill="#FBB848" transform="translate(0,0)"/>
<path d="" fill="#FCBE4A" transform="translate(0,0)"/>
<path d="" fill="#F27164" transform="translate(0,0)"/>
<path d="" fill="#FCBE4A" transform="translate(0,0)"/>
<path d="" fill="#FBB848" transform="translate(0,0)"/>
<path d="" fill="#FCBE4A" transform="translate(0,0)"/>
<path d="" fill="#FCBE4A" transform="translate(0,0)"/>
<path d="" fill="#FCBE4A" transform="translate(0,0)"/>
<path d="" fill="#FFF253" transform="translate(0,0)"/>
<path d="" fill="#FCBE4A" transform="translate(0,0)"/>
<path d="" fill="#FCBE4A" transform="translate(0,0)"/>
<path d="" fill="#FCBE4A" transform="translate(0,0)"/>
<path d="" fill="#FCBE4A" transform="translate(0,0)"/>
<path d="" fill="#FCBE4A" transform="translate(0,0)"/>
<path d="" fill="#FCBE4A" transform="translate(0,0)"/>
<path d="" fill="#FCBE4A" transform="translate(0,0)"/>
<path d="" fill="#F27164" transform="translate(0,0)"/>
<path d="" fill="#FCBE4A" transform="translate(0,0)"/>
<path d="" fill="#FCBE4A" transform="translate(0,0)"/>
<path d="" fill="#FBB848" transform="translate(0,0)"/>
<path d="" fill="#F27164" transform="translate(0,0)"/>
<path d="" fill="#FBB848" transform="translate(0,0)"/>
<path d="" fill="#F27164" transform="translate(0,0)"/>
<path d="" fill="#F27164" transform="translate(0,0)"/>
<path d="" fill="#F27164" transform="translate(0,0)"/>
<path d="" fill="#F27164" transform="translate(0,0)"/>
<path d="" fill="#F27164" transform="translate(0,0)"/>
<path d="" fill="#FCBE4A" transform="translate(0,0)"/>
<path d="" fill="#F27164" transform="translate(0,0)"/>
<path d="" fill="#FFDF41" transform="translate(0,0)"/>
<path d="" fill="#FCBE4A" transform="translate(0,0)"/>
<path d="" fill="#F27164" transform="translate(0,0)"/>
<path d="" fill="#FCBE4A" transform="translate(0,0)"/>
<path d="" fill="#FCBE4A" transform="translate(0,0)"/>
<path d="" fill="#FCBE4A" transform="translate(0,0)"/>
<path d="" fill="#FCBE4A" transform="translate(0,0)"/>
<path d="" fill="#FFF253" transform="translate(0,0)"/>
<path d="" fill="#F27164" transform="translate(0,0)"/>
<path d="" fill="#FCBE4A" transform="translate(0,0)"/>
<path d="" fill="#F27164" transform="translate(0,0)"/>
<path d="" fill="#FBB848" transform="translate(0,0)"/>
<path d="" fill="#FFDF41" transform="translate(0,0)"/>
<path d="" fill="#FBB848" transform="translate(0,0)"/>
<path d="" fill="#FBB848" transform="translate(0,0)"/>
<path d="" fill="#FCBE4A" transform="translate(0,0)"/>
<path d="" fill="#FFF253" transform="translate(0,0)"/>
<path d="" fill="#FFF253" transform="translate(0,0)"/>
<path d="" fill="#FFF253" transform="translate(0,0)"/>
<path d="" fill="#FBB848" transform="translate(0,0)"/>
<path d="" fill="#FBB848" transform="translate(0,0)"/>
<path d="" fill="#FBB848" transform="translate(0,0)"/>
<path d="" fill="#FCBE4A" transform="translate(0,0)"/>
<path d="" fill="#FBB848" transform="translate(0,0)"/>
<path d="" fill="#FBB848" transform="translate(0,0)"/>
<path d="" fill="#F27164" transform="translate(0,0)"/>
<path d="" fill="#F27164" transform="translate(0,0)"/>
<path d="" fill="#FBB848" transform="translate(0,0)"/>
<path d="" fill="#FCBE4A" transform="translate(0,0)"/>
<path d="" fill="#FCBE4A" transform="translate(0,0)"/>
<path d="" fill="#FCBE4A" transform="translate(0,0)"/>
<path d="" fill="#FCBE4A" transform="translate(0,0)"/>
<path d="" fill="#FCBE4A" transform="translate(0,0)"/>
<path d="" fill="#FCBE4A" transform="translate(0,0)"/>
<path d="" fill="#F27164" transform="translate(0,0)"/>
<path d="" fill="#F27164" transform="translate(0,0)"/>
<path d="" fill="#F27164" transform="translate(0,0)"/>
<path d="" fill="#FCBE4A" transform="translate(0,0)"/>
<path d="" fill="#FCBE4A" transform="translate(0,0)"/>
<path d="" fill="#FCBE4A" transform="translate(0,0)"/>
<path d="" fill="#FCBE4A" transform="translate(0,0)"/>
<path d="" fill="#FCBE4A" transform="translate(0,0)"/>
<path d="" fill="#F27164" transform="translate(0,0)"/>
<path d="" fill="#FFDF41" transform="translate(0,0)"/>
<path d="" fill="#FFDF41" transform="translate(0,0)"/>
<path d="" fill="#FFDF41" transform="translate(0,0)"/>
<path d="" fill="#FFDF41" transform="translate(0,0)"/>
<path d="" fill="#F27164" transform="translate(0,0)"/>
<path d="" fill="#FCBE4A" transform="translate(0,0)"/>
<path d="" fill="#FCBE4A" transform="translate(0,0)"/>
<path d="" fill="#FCBE4A" transform="translate(0,0)"/>
<path d="" fill="#FCBE4A" transform="translate(0,0)"/>
<path d="" fill="#F27164" transform="translate(0,0)"/>
<path d="" fill="#FCBE4A" transform="translate(0,0)"/>
<path d="" fill="#F27164" transform="translate(0,0)"/>
<path d="" fill="#F27164" transform="translate(0,0)"/>
<path d="" fill="#F27164" transform="translate(0,0)"/>
<path d="" fill="#FAB425" transform="translate(0,0)"/>
<path d="" fill="#FFDF41" transform="translate(0,0)"/>
<path d="" fill="#FFF253" transform="translate(0,0)"/>
<path d="" fill="#FCBE4A" transform="translate(0,0)"/>
<path d="" fill="#FCBE4A" transform="translate(0,0)"/>
<path d="" fill="#FCBE4A" transform="translate(0,0)"/>
<path d="" fill="#FBB848" transform="translate(0,0)"/>
<path d="" fill="#FCBE4A" transform="translate(0,0)"/>
<path d="" fill="#FFDF41" transform="translate(0,0)"/>
<path d="" fill="#FCBE4A" transform="translate(0,0)"/>
<path d="" fill="#FCBE4A" transform="translate(0,0)"/>
<path d="" fill="#FFDF41" transform="translate(0,0)"/>
<path d="" fill="#FAB425" transform="translate(0,0)"/>
<path d="" fill="#FBB848" transform="translate(0,0)"/>
<path d="" fill="#FCBE4A" transform="translate(0,0)"/>
<path d="" fill="#FCBE4A" transform="translate(0,0)"/>
<path d="" fill="#FCBE4A" transform="translate(0,0)"/>
<path d="" fill="#FCBE4A" transform="translate(0,0)"/>
<path d="" fill="#FCBE4A" transform="translate(0,0)"/>
</svg>
