<?xml version="1.0" encoding="UTF-8"?>
<svg version="1.1" xmlns="http://www.w3.org/2000/svg" width="256" height="256">
<path d="M0 0 C1.93939453 -0.03480469 1.93939453 -0.03480469 3.91796875 -0.0703125 C14.45436549 -0.00533986 14.45436549 -0.00533986 18.79296875 3.625 C28.23504993 13.45368848 27.19336083 29.61343508 28.125 42.375 C28.25985431 44.16019882 28.39526628 45.94535561 28.53125 47.73046875 C28.86060156 52.06985433 29.18238895 56.40973996 29.5 60.75 C29.67015625 60.19127197 29.8403125 59.63254395 30.015625 59.05688477 C37.18483541 35.96430507 37.18483541 35.96430507 47.90234375 29.56640625 C53.71244072 26.78289242 59.80691472 27.12950462 66.125 27.1875 C67.32640625 27.16365234 68.5278125 27.13980469 69.765625 27.11523438 C79.53744463 27.13148463 79.53744463 27.13148463 83.2734375 30.16015625 C89.51230227 37.41694106 88.09168221 49.71491013 87.57141113 58.87643433 C86.4961657 70.59486233 82.03078188 81.58324171 77.875 92.5 C77.26777603 94.0963176 77.26777603 94.0963176 76.64828491 95.72488403 C65.47260509 124.77739491 65.47260509 124.77739491 60.5 129.75 C60.21768617 132.4781956 60.21768617 132.4781956 60.3125 135.5625 C60.31894531 136.60019531 60.32539063 137.63789063 60.33203125 138.70703125 C60.41799414 141.6499452 60.41799414 141.6499452 60.98828125 144.0859375 C63.21803836 155.69429129 61.65886803 167.9799473 59.375 179.4375 C59.18728027 180.42790283 58.99956055 181.41830566 58.80615234 182.4387207 C57.37048431 189.0514099 55.06816083 194.64827925 50.5 199.75 C49.84 199.75 49.18 199.75 48.5 199.75 C48.28214844 200.45382813 48.06429687 201.15765625 47.83984375 201.8828125 C46.1757274 205.44392446 43.83254852 207.90976947 41.0625 210.625 C40.52826416 211.1516626 39.99402832 211.6783252 39.44360352 212.22094727 C34.58517134 216.88294881 29.43521477 220.55014508 23.5 223.75 C22.65179688 224.20890625 21.80359375 224.6678125 20.9296875 225.140625 C10.80585489 230.15721071 -1.20175043 233.29118783 -12.5 233.75 C-13.51964844 233.8015625 -14.53929688 233.853125 -15.58984375 233.90625 C-37.45945485 234.4966557 -55.57357896 227.63324344 -71.5859375 212.8203125 C-95.06031929 188.07130364 -93.63992567 150.23971438 -93.79754639 118.47167969 C-93.80745991 116.50159899 -93.8219344 114.5315356 -93.84112549 112.56152344 C-93.86499674 109.76473631 -93.86741039 106.96874576 -93.86328125 104.171875 C-93.87240036 103.33952332 -93.88151947 102.50717163 -93.89091492 101.64959717 C-93.84144674 95.27562806 -92.82299063 89.59306316 -88.66796875 84.5078125 C-81.49200633 78.59153579 -75.7500781 77.03101037 -66.5 77.75 C-63.45573987 78.27161621 -60.48082992 78.94359191 -57.5 79.75 C-57.23058594 79.14542969 -56.96117187 78.54085937 -56.68359375 77.91796875 C-54.45318634 73.83256904 -50.85857201 71.20285734 -46.5 69.75 C-44.23236426 69.60351918 -41.95967634 69.5290374 -39.6875 69.5 C-38.48480469 69.47421875 -37.28210938 69.4484375 -36.04296875 69.421875 C-32.18838903 69.77885923 -29.88271223 70.94881943 -26.5 72.75 C-26.5815332 71.43918457 -26.66306641 70.12836914 -26.74707031 68.77783203 C-27.04579084 63.87746329 -27.31435986 58.97581247 -27.57421875 54.07324219 C-27.69044762 51.95852244 -27.81466353 49.84422499 -27.94726562 47.73046875 C-28.13733329 44.67786682 -28.29785937 41.62485922 -28.453125 38.5703125 C-28.5175177 37.63760529 -28.5819104 36.70489807 -28.64825439 35.743927 C-28.95165693 28.9741728 -27.58834582 23.78768416 -24.5 17.75 C-24.005 17.255 -24.005 17.255 -23.5 16.75 C-23.16305179 14.33216889 -22.85835626 11.91428076 -22.5859375 9.48828125 C-18.56967889 -0.63904711 -9.59809107 -0.17224889 0 0 Z " fill="#FBBC40" transform="translate(140.5,6.25)"/>
<path d="M0 0 C7.76785714 -0.66964286 7.76785714 -0.66964286 11.4375 2.375 C17.42885298 8.51248354 16.34697939 18.26861749 16.29037476 26.43171692 C15.58845838 47.75792155 5.15292347 68.60402436 -3 88 C-3.34470337 88.86223175 -3.68940674 89.7244635 -4.04455566 90.61282349 C-4.38208862 91.42967621 -4.71962158 92.24652893 -5.06738281 93.08813477 C-5.50911835 94.18086449 -5.50911835 94.18086449 -5.95977783 95.29566956 C-7 97 -7 97 -10.25 98.0625 C-11.1575 98.041875 -12.065 98.02125 -13 98 C-12.814375 97.360625 -12.62875 96.72125 -12.4375 96.0625 C-12.293125 95.381875 -12.14875 94.70125 -12 94 C-12.33 93.67 -12.66 93.34 -13 93 C-13.12569503 90.8778002 -13.17576773 88.75088655 -13.1875 86.625 C-13.20167969 85.46226563 -13.21585938 84.29953125 -13.23046875 83.1015625 C-13 80 -13 80 -11 77 C-10.36828838 74.97277999 -9.79296066 72.92777234 -9.25 70.875 C-7.74239744 65.43087965 -6.04319712 60.1245735 -4.125 54.8125 C5.10967382 32.80572751 5.10967382 32.80572751 4 10 C3.01 10 2.02 10 1 10 C0.875 3.25 0.875 3.25 2 1 C1.34 0.67 0.68 0.34 0 0 Z " fill="#FBE746" transform="translate(212,34)"/>
<path d="M0 0 C4.35365427 -0.17509799 8.70639697 -0.2811281 13.0625 -0.375 C14.29162109 -0.42527344 15.52074219 -0.47554688 16.78710938 -0.52734375 C27.03705359 -0.69311104 27.03705359 -0.69311104 31.2578125 2.8515625 C40.57663518 12.51674321 39.77757218 28.62968548 40.74902344 41.22070312 C40.97597927 43.73399614 41.29664751 46.20727391 41.6640625 48.703125 C43.55533583 63.53096521 38.29722332 76.30462732 33 90 C32.34 90 31.68 90 31 90 C29.08418074 86.16836149 29.58107085 81.28561506 29.39453125 77.03320312 C29.56827928 73.20232099 29.56827928 73.20232099 28 70 C27.85511537 68.47535067 27.77294948 66.94462108 27.71875 65.4140625 C27.66267578 64.01800781 27.66267578 64.01800781 27.60546875 62.59375 C27.57066406 61.6140625 27.53585938 60.634375 27.5 59.625 C27.43108101 57.70037352 27.35832899 55.77587945 27.28125 53.8515625 C27.25095703 52.99385254 27.22066406 52.13614258 27.18945312 51.25244141 C27.07495932 48.83220799 27.07495932 48.83220799 26 46 C25.97827148 44.00708008 25.97827148 44.00708008 26.12109375 41.76953125 C26.19360352 40.56586914 26.19360352 40.56586914 26.26757812 39.33789062 C26.35168945 38.08782227 26.35168945 38.08782227 26.4375 36.8125 C26.48970703 35.96751953 26.54191406 35.12253906 26.59570312 34.25195312 C26.72523689 32.16763701 26.86193177 30.08376818 27 28 C29.51613838 31.77420757 29.41065841 34.99011122 29.5625 39.375 C29.75936741 45.14851271 29.75936741 45.14851271 30.58984375 50.8515625 C31 53 31 53 30 56 C30.11069652 57.83756229 30.28376721 59.67185004 30.5 61.5 C30.90345467 64.91102583 31.09821246 66.70536263 30 70 C30.99 70.495 30.99 70.495 32 71 C31.67 75.29 31.34 79.58 31 84 C31.66 84 32.32 84 33 84 C34.09506492 80.71480525 34.09960608 78.26336585 34.0625 74.8125 C34.05347656 73.72582031 34.04445312 72.63914062 34.03515625 71.51953125 C34.02355469 70.68808594 34.01195312 69.85664062 34 69 C34.66 68.67 35.32 68.34 36 68 C36 66.02 36 64.04 36 62 C36.33 62.66 36.66 63.32 37 64 C37.66 64 38.32 64 39 64 C39 63.01 39 62.02 39 61 C38.01 60.505 38.01 60.505 37 60 C36.67 59.34 36.34 58.68 36 58 C36.66 57.34 37.32 56.68 38 56 C37.34 55.01 36.68 54.02 36 53 C36.66 53 37.32 53 38 53 C38 52.34 38 51.68 38 51 C37.34 51 36.68 51 36 51 C36.185625 50.05125 36.37125 49.1025 36.5625 48.125 C37.28686632 45.10131207 37.28686632 45.10131207 36 43 C36.33 42.01 36.66 41.02 37 40 C36.01 39.67 35.02 39.34 34 39 C33.93941406 38.18015625 33.87882812 37.3603125 33.81640625 36.515625 C33.73261719 35.43796875 33.64882812 34.3603125 33.5625 33.25 C33.48128906 32.18265625 33.40007812 31.1153125 33.31640625 30.015625 C32.78228111 24.92495081 31.27717547 21.32979028 28.9375 16.75 C28.38964844 15.67234375 27.84179688 14.5946875 27.27734375 13.484375 C26.64505859 12.25460938 26.64505859 12.25460938 26 11 C25.01 11.66 24.02 12.32 23 13 C23 11.68 23 10.36 23 9 C22.01 9.495 22.01 9.495 21 10 C20.67 9.01 20.34 8.02 20 7 C16.48809191 5.77030122 16.48809191 5.77030122 13 5 C12.5875 5.61875 12.175 6.2375 11.75 6.875 C9.8584683 9.17185992 8.82581721 10.11188602 6 11 C3.0625 10.625 3.0625 10.625 0 10 C-1.66627298 9.96377667 -3.33405374 9.95100158 -5 10 C-5.33 10.66 -5.66 11.32 -6 12 C-6 10.68 -6 9.36 -6 8 C-4 6.375 -4 6.375 -2 5 C-2 4.34 -2 3.68 -2 3 C-1.34 2.67 -0.68 2.34 0 2 C0 1.34 0 0.68 0 0 Z M29 11 C29.33 11.99 29.66 12.98 30 14 C30.33 13.01 30.66 12.02 31 11 C30.34 11 29.68 11 29 11 Z " fill="#FAE843" transform="translate(128,7)"/>
<path d="M0 0 C0.66 0.33 1.32 0.66 2 1 C1.360625 1.5775 0.72125 2.155 0.0625 2.75 C-2.1318885 4.7613943 -2.1318885 4.7613943 -2.4375 7.0625 C-3 9 -3 9 -5.5 10.625 C-6.325 11.07875 -7.15 11.5325 -8 12 C-9.46071759 14.92143519 -9.22206312 17.58424668 -9.31640625 20.84375 C-9.33718735 21.52747681 -9.35796844 22.21120361 -9.37937927 22.91564941 C-9.42266742 24.36818194 -9.46370641 25.82078295 -9.50268555 27.2734375 C-9.56152501 29.46370644 -9.62677683 31.6537042 -9.69335938 33.84375 C-9.91116046 41.23065252 -10.05092045 48.60926057 -10 56 C-9.34 56.33 -8.68 56.66 -8 57 C-8.33 57.99 -8.66 58.98 -9 60 C-8.2575 60.0825 -7.515 60.165 -6.75 60.25 C-3.45123456 61.1496633 -2.38062958 62.61937042 0 65 C2.64184541 65.79681318 2.64184541 65.79681318 5 66 C5 66.66 5 67.32 5 68 C5.66 68.33 6.32 68.66 7 69 C3.89949901 70.842021 2.10799603 71.16310226 -1.4375 70.625 C-6.76338626 69.93446035 -11.95070088 70.00208434 -17.3125 70.16015625 C-20 70 -20 70 -22 68 C-21.67 67.01 -21.34 66.02 -21 65 C-18.03 64.505 -18.03 64.505 -15 64 C-13.43680104 57.31062509 -12.71963348 51.05614345 -12.8046875 44.1953125 C-12.80893234 42.86570999 -12.80893234 42.86570999 -12.81326294 41.50924683 C-12.82432896 38.7143522 -12.84938185 35.91979515 -12.875 33.125 C-12.88504971 31.22917139 -12.89417204 29.33333763 -12.90234375 27.4375 C-12.92186598 23.28165357 -12.95017371 19.12597729 -12.98654175 14.97024536 C-13.00013522 12.98020494 -13 10.99008684 -13 9 C-11.35 9 -9.7 9 -8 9 C-7.79375 8.443125 -7.5875 7.88625 -7.375 7.3125 C-5.44999226 4.07498698 -2.96149098 2.31768859 0 0 Z " fill="#EDAE2E" transform="translate(91,77)"/>
<path d="M0 0 C0.33 0.66 0.66 1.32 1 2 C0.505 2.45375 0.01 2.9075 -0.5 3.375 C-2.22609337 4.87635519 -2.22609337 4.87635519 -2 7 C-2.66 7 -3.32 7 -4 7 C-4.12375 7.639375 -4.2475 8.27875 -4.375 8.9375 C-4.58125 9.618125 -4.7875 10.29875 -5 11 C-5.99 11.495 -5.99 11.495 -7 12 C-7.35672241 14.51963422 -7.44375117 17.01333243 -7.55859375 19.5546875 C-8.07573772 22.41957357 -8.87490897 23.11043543 -11 25 C-11.7210974 26.67163488 -12.43902614 28.34489758 -13.125 30.03125 C-15.68283952 35.78638892 -18.74699638 40.39794038 -24 44 C-22.56702792 36.99435872 -20.64636678 30.27847105 -18.375 23.5 C-18.06949219 22.51902344 -17.76398438 21.53804687 -17.44921875 20.52734375 C-14.73761606 12.47827807 -10.33514517 4.92883682 -2.5 0.9375 C-1.2625 0.4734375 -1.2625 0.4734375 0 0 Z " fill="#E4A93F" transform="translate(191,35)"/>
<path d="M0 0 C2.51613838 3.77420757 2.41065841 6.99011122 2.5625 11.375 C2.75936741 17.14851271 2.75936741 17.14851271 3.58984375 22.8515625 C4 25 4 25 3 28 C3.11069652 29.83756229 3.28376721 31.67185004 3.5 33.5 C3.90345467 36.91102583 4.09821246 38.70536263 3 42 C3.66 42.33 4.32 42.66 5 43 C4.67 47.29 4.34 51.58 4 56 C4.66 56 5.32 56 6 56 C7.09506492 52.71480525 7.09960608 50.26336585 7.0625 46.8125 C7.04896484 45.18248047 7.04896484 45.18248047 7.03515625 43.51953125 C7.02355469 42.68808594 7.01195312 41.85664062 7 41 C7.99 40.505 7.99 40.505 9 40 C9 38.02 9 36.04 9 34 C9.33 34.66 9.66 35.32 10 36 C10.66 36 11.32 36 12 36 C12 35.01 12 34.02 12 33 C11.34 32.67 10.68 32.34 10 32 C9.67 31.34 9.34 30.68 9 30 C9.66 29.34 10.32 28.68 11 28 C10.34 27.01 9.68 26.02 9 25 C9.66 25 10.32 25 11 25 C11.33 24.34 11.66 23.68 12 23 C13 24 13 24 13 27.6875 C12.979375 28.35136719 12.95875 29.01523438 12.9375 29.69921875 C12.93099412 32.09916208 12.93099412 32.09916208 13.60717773 34.77905273 C14.04810081 38.3944027 13.54161091 40.41939033 12.34765625 43.8359375 C11.98349609 44.89941406 11.61933594 45.96289062 11.24414062 47.05859375 C10.85419922 48.15300781 10.46425781 49.24742188 10.0625 50.375 C9.67642578 51.49261719 9.29035156 52.61023438 8.89257812 53.76171875 C7.94046045 56.51228093 6.97598688 59.25783576 6 62 C5.34 62 4.68 62 4 62 C2.08418074 58.16836149 2.58107085 53.28561506 2.39453125 49.03320312 C2.56827928 45.20232099 2.56827928 45.20232099 1 42 C0.85511537 40.47535067 0.77294948 38.94462108 0.71875 37.4140625 C0.68136719 36.48335937 0.64398438 35.55265625 0.60546875 34.59375 C0.57066406 33.6140625 0.53585938 32.634375 0.5 31.625 C0.43108101 29.70037352 0.35832899 27.77587945 0.28125 25.8515625 C0.25095703 24.99385254 0.22066406 24.13614258 0.18945312 23.25244141 C0.07495932 20.83220799 0.07495932 20.83220799 -1 18 C-1.02172852 16.00708008 -1.02172852 16.00708008 -0.87890625 13.76953125 C-0.83056641 12.96708984 -0.78222656 12.16464844 -0.73242188 11.33789062 C-0.67634766 10.50451172 -0.62027344 9.67113281 -0.5625 8.8125 C-0.48418945 7.5450293 -0.48418945 7.5450293 -0.40429688 6.25195312 C-0.27476311 4.16763701 -0.13806823 2.08376818 0 0 Z " fill="#FEDD4E" transform="translate(155,35)"/>
<path d="M0 0 C0.66 0.33 1.32 0.66 2 1 C1.67 1.99 1.34 2.98 1 4 C1.7425 4.0825 2.485 4.165 3.25 4.25 C6.54876544 5.1496633 7.61937042 6.61937042 10 9 C12.64184541 9.79681318 12.64184541 9.79681318 15 10 C15 10.66 15 11.32 15 12 C15.66 12.33 16.32 12.66 17 13 C13.89949901 14.842021 12.10799603 15.16310226 8.5625 14.625 C3.22920801 13.92555187 -1.94493026 14.04260334 -7.3125 14.2578125 C-8.6428125 14.13019531 -8.6428125 14.13019531 -10 14 C-10.66 13.01 -11.32 12.02 -12 11 C-10.741875 10.773125 -9.48375 10.54625 -8.1875 10.3125 C-5.00540662 9.51978769 -4.21108791 9.25875292 -2.0625 6.625 C-1.16435844 4.40606204 -0.43528706 2.35055014 0 0 Z " fill="#E6932E" transform="translate(81,133)"/>
<path d="M0 0 C0.66 1.32 1.32 2.64 2 4 C2.99 3.01 3.98 2.02 5 1 C5.33 2.32 5.66 3.64 6 5 C5.01 5.495 5.01 5.495 4 6 C5.32 6 6.64 6 8 6 C8.33 4.68 8.66 3.36 9 2 C8.34 1.67 7.68 1.34 7 1 C8.65 0.67 10.3 0.34 12 0 C8.68184597 13.22555012 8.68184597 13.22555012 6 17 C2.8125 17.875 2.8125 17.875 0 18 C0.185625 17.360625 0.37125 16.72125 0.5625 16.0625 C0.706875 15.381875 0.85125 14.70125 1 14 C0.67 13.67 0.34 13.34 0 13 C-0.07258946 10.81360547 -0.08373783 8.62499611 -0.0625 6.4375 C-0.05347656 5.23996094 -0.04445312 4.04242188 -0.03515625 2.80859375 C-0.02355469 1.88175781 -0.01195312 0.95492187 0 0 Z " fill="#FBDE42" transform="translate(199,114)"/>
<path d="M0 0 C0.99 0.33 1.98 0.66 3 1 C-0.96 11.89 -4.92 22.78 -9 34 C-9.99 32.68 -10.98 31.36 -12 30 C-11.34 29.67 -10.68 29.34 -10 29 C-9.34786708 26.97536745 -9.34786708 26.97536745 -9 25 C-9.66 24.67 -10.32 24.34 -11 24 C-10.01 24 -9.02 24 -8 24 C-8 23.34 -8 22.68 -8 22 C-8.99 21.67 -9.98 21.34 -11 21 C-11 20.34 -11 19.68 -11 19 C-10.34 19 -9.68 19 -9 19 C-9 19.66 -9 20.32 -9 21 C-8.34 21 -7.68 21 -7 21 C-7.33 19.35 -7.66 17.7 -8 16 C-7.34 16 -6.68 16 -6 16 C-5.67 15.34 -5.34 14.68 -5 14 C-5.66 13.67 -6.32 13.34 -7 13 C-6.01 13 -5.02 13 -4 13 C-4 11.02 -4 9.04 -4 7 C-3.34 7 -2.68 7 -2 7 C-2 6.34 -2 5.68 -2 5 C-1.34 5 -0.68 5 0 5 C0 3.35 0 1.7 0 0 Z " fill="#EEC727" transform="translate(221,80)"/>
<path d="M0 0 C0.66 0 1.32 0 2 0 C1.60708783 13.24114022 1.60708783 13.24114022 -3 19 C-3.144375 19.86625 -3.28875 20.7325 -3.4375 21.625 C-4.23978067 25.01240726 -6.21802648 26.07401834 -9 28 C-7.6893114 21.668171 -6.01923958 15.61859223 -3.9375 9.5 C-3.5343457 8.28570312 -3.5343457 8.28570312 -3.12304688 7.046875 C-1.13384956 1.13384956 -1.13384956 1.13384956 0 0 Z " fill="#DB9E37" transform="translate(176,51)"/>
<path d="M0 0 C0.33 0 0.66 0 1 0 C1.33 4.95 1.66 9.9 2 15 C2.66 15 3.32 15 4 15 C4.12375 14.21625 4.2475 13.4325 4.375 12.625 C5 10 5 10 7 8 C6.5547115 13.27315333 5.91626837 18.01770224 4 23 C2.35 23 0.7 23 -1 23 C-1.02887512 19.35418313 -1.04675585 15.70839537 -1.0625 12.0625 C-1.07087891 11.02158203 -1.07925781 9.98066406 -1.08789062 8.90820312 C-1.09272461 7.42416992 -1.09272461 7.42416992 -1.09765625 5.91015625 C-1.10289307 4.99371338 -1.10812988 4.07727051 -1.11352539 3.13305664 C-1 1 -1 1 0 0 Z " fill="#E4B232" transform="translate(157,82)"/>
<path d="M0 0 C1.2065625 0.0309375 1.2065625 0.0309375 2.4375 0.0625 C-0.13114535 3.91546803 -2.01577733 4.40330048 -6.359375 5.62890625 C-13.92907083 6.65358459 -22.2476695 5.07150274 -29.5625 3.0625 C-30.305 2.876875 -31.0475 2.69125 -31.8125 2.5 C-32.39 2.355625 -32.9675 2.21125 -33.5625 2.0625 C-28.02146481 0.21548827 -22.23275807 0.94379264 -16.5 1.625 C-11.96403148 2.12820901 -8.05179219 1.87873494 -3.5625 1.0625 C-2.5625 0.0625 -2.5625 0.0625 0 0 Z " fill="#EFA037" transform="translate(105.5625,144.9375)"/>
<path d="M0 0 C1.56897703 2.82527536 2.31184205 5.11842048 2.6328125 8.328125 C2.71660156 9.12734375 2.80039063 9.9265625 2.88671875 10.75 C2.96535156 11.575 3.04398438 12.4 3.125 13.25 C3.21136719 14.09046875 3.29773438 14.9309375 3.38671875 15.796875 C3.59811722 17.86388223 3.79999462 19.93185928 4 22 C3.34 22.33 2.68 22.66 2 23 C1.34 20.36 0.68 17.72 0 15 C0.66 15 1.32 15 2 15 C1.67 14.01 1.34 13.02 1 12 C0.01 11.67 -0.98 11.34 -2 11 C-2 10.34 -2 9.68 -2 9 C-2.99 8.67 -3.98 8.34 -5 8 C-6.1875 4.9375 -6.1875 4.9375 -7 2 C-4 3 -4 3 -1 5 C-1 4.34 -1 3.68 -1 3 C-1.66 2.67 -2.32 2.34 -3 2 C-2.01 1.34 -1.02 0.68 0 0 Z " fill="#F3DF37" transform="translate(164,19)"/>
<path d="M0 0 C7.76785714 -0.66964286 7.76785714 -0.66964286 11.4375 2.0625 C14.41954213 5.48093854 14.82473367 7.53070868 15 12 C14.34 12 13.68 12 13 12 C12.401875 11.030625 11.80375 10.06125 11.1875 9.0625 C9.31816449 5.79880003 9.31816449 5.79880003 6.25 5.125 C5.5075 5.08375 4.765 5.0425 4 5 C4.33 5.99 4.66 6.98 5 8 C4.01 8 3.02 8 2 8 C1.67 8.66 1.34 9.32 1 10 C0.875 3.25 0.875 3.25 2 1 C1.34 0.67 0.68 0.34 0 0 Z " fill="#F7EC36" transform="translate(212,34)"/>
<path d="M0 0 C2.51613838 3.77420757 2.41065841 6.99011122 2.5625 11.375 C2.74970525 16.043182 3.0700154 20.41207599 4 25 C3.67 25.33 3.34 25.66 3 26 C2.76321284 28.69235776 2.57801975 31.36498156 2.4375 34.0625 C2.39431641 34.82111328 2.35113281 35.57972656 2.30664062 36.36132812 C2.20026367 38.24065438 2.09960066 40.12030244 2 42 C1.67 42 1.34 42 1 42 C0.97494385 41.37955811 0.9498877 40.75911621 0.92407227 40.11987305 C0.80803279 37.30887603 0.68534241 34.49820759 0.5625 31.6875 C0.52318359 30.71103516 0.48386719 29.73457031 0.44335938 28.72851562 C0.40146484 27.79072266 0.35957031 26.85292969 0.31640625 25.88671875 C0.27974854 25.02264404 0.24309082 24.15856934 0.20532227 23.26831055 C0.07252646 20.8352174 0.07252646 20.8352174 -1 18 C-1.02172852 16.00708008 -1.02172852 16.00708008 -0.87890625 13.76953125 C-0.83056641 12.96708984 -0.78222656 12.16464844 -0.73242188 11.33789062 C-0.67634766 10.50451172 -0.62027344 9.67113281 -0.5625 8.8125 C-0.48418945 7.5450293 -0.48418945 7.5450293 -0.40429688 6.25195312 C-0.27476311 4.16763701 -0.13806823 2.08376818 0 0 Z " fill="#FED749" transform="translate(155,35)"/>
<path d="M0 0 C0.66 0.33 1.32 0.66 2 1 C1.3481717 7.90937997 1.3481717 7.90937997 -2 11 C-2.74148754 12.7086452 -3.48012338 14.41905845 -4.171875 16.1484375 C-5.45354923 19.01406762 -7.19001958 21.44106216 -9 24 C-9.33 23.01 -9.66 22.02 -10 21 C-9.38125 20.175 -8.7625 19.35 -8.125 18.5 C-5.33666756 14.74428691 -5.5184504 10.93821184 -5.46875 6.390625 C-5.3140625 5.60171875 -5.159375 4.8128125 -5 4 C-3.03125 2.796875 -3.03125 2.796875 -1 2 C-0.67 1.34 -0.34 0.68 0 0 Z " fill="#E9AC38" transform="translate(182,49)"/>
<path d="M0 0 C3.12498063 -0.02895976 6.2499269 -0.04678483 9.375 -0.0625 C10.70917969 -0.07506836 10.70917969 -0.07506836 12.0703125 -0.08789062 C13.34648437 -0.09272461 13.34648437 -0.09272461 14.6484375 -0.09765625 C15.43395996 -0.10289307 16.21948242 -0.10812988 17.02880859 -0.11352539 C19 0 19 0 21 1 C20.67 2.98 20.34 4.96 20 7 C19.113125 6.690625 18.22625 6.38125 17.3125 6.0625 C14.12684918 4.96143303 14.12684918 4.96143303 11.25 4.5 C9 4 9 4 7 2 C4.67724823 1.59952556 2.34260643 1.2602896 0 1 C0 0.67 0 0.34 0 0 Z " fill="#F6D04D" transform="translate(193,34)"/>
<path d="M0 0 C3.18609925 0.35401103 4.79066678 0.83027036 7.3125 2.875 C9 5 9 5 9 8 C5.04 7.67 1.08 7.34 -3 7 C-2.67 6.01 -2.34 5.02 -2 4 C-1.34 4 -0.68 4 0 4 C0 2.68 0 1.36 0 0 Z " fill="#D97C26" transform="translate(82,137)"/>
<path d="M0 0 C3.07877133 -0.4505519 5.21010698 -0.50042912 7.88671875 1.1953125 C11.03858764 3.82517375 13.50684471 6.09238083 15 10 C14.67 10.66 14.34 11.32 14 12 C13.34 11.67 12.68 11.34 12 11 C11.01 10.67 10.02 10.34 9 10 C8.566875 9.21625 8.13375 8.4325 7.6875 7.625 C5.59627953 4.37199038 3.50963927 3.48184769 0 2 C0 1.34 0 0.68 0 0 Z " fill="#F2EA19" transform="translate(149,7)"/>
<path d="M0 0 C0.66 0.33 1.32 0.66 2 1 C1.360625 1.5775 0.72125 2.155 0.0625 2.75 C-2.1318885 4.7613943 -2.1318885 4.7613943 -2.4375 7.0625 C-3 9 -3 9 -5.25 10.6875 C-7.88647996 11.94581998 -10.12063397 12.588662 -13 13 C-13 11.68 -13 10.36 -13 9 C-11.35 9 -9.7 9 -8 9 C-7.79375 8.443125 -7.5875 7.88625 -7.375 7.3125 C-5.44999226 4.07498698 -2.96149098 2.31768859 0 0 Z " fill="#DFA32E" transform="translate(91,77)"/>
<path d="M0 0 C0.66 0.33 1.32 0.66 2 1 C2 1.66 2 2.32 2 3 C2.66 3 3.32 3 4 3 C4 3.66 4 4.32 4 5 C2.02 5.99 2.02 5.99 0 7 C0.33 8.32 0.66 9.64 1 11 C0.01 11.33 -0.98 11.66 -2 12 C-2.33 10.68 -2.66 9.36 -3 8 C-3.66 8 -4.32 8 -5 8 C-5.66 9.32 -6.32 10.64 -7 12 C-7 8.38970831 -6.03907418 5.44193324 -5 2 C-4.67 2.66 -4.34 3.32 -4 4 C-2.68 3.67 -1.36 3.34 0 3 C0 2.01 0 1.02 0 0 Z " fill="#FBE042" transform="translate(208,102)"/>
<path d="M0 0 C0.99 0.495 0.99 0.495 2 1 C2 1.66 2 2.32 2 3 C2.66 3 3.32 3 4 3 C3.835 3.71800781 3.67 4.43601563 3.5 5.17578125 C3.01029058 7.9418743 2.933769 10.3851009 3 13.1875 C3.05796718 18.5204806 2.64263923 23.70970208 2 29 C1.67 29 1.34 29 1 29 C0.35782702 19.32153574 -0.16831537 9.70618661 0 0 Z " fill="#F09369" transform="translate(47,133)"/>
<path d="M0 0 C4.29 0.66 8.58 1.32 13 2 C13 1.34 13 0.68 13 0 C14.65 0 16.3 0 18 0 C18 0.66 18 1.32 18 2 C18.66 2.33 19.32 2.66 20 3 C17.38579727 4.77765786 16.07305744 5.0058446 12.875 4.75 C8.24550234 3.8539682 3.6173506 2.95691572 -1 2 C-0.67 1.34 -0.34 0.68 0 0 Z " fill="#E1882B" transform="translate(78,143)"/>
<path d="M0 0 C2.81939117 2.20979308 5.53058944 4.40062046 8 7 C8.33 6.34 8.66 5.68 9 5 C9 5.99 9 6.98 9 8 C8.01 8.495 8.01 8.495 7 9 C7.33 9.99 7.66 10.98 8 12 C4.125 10.25 4.125 10.25 3 8 C3.33 7.34 3.66 6.68 4 6 C3.34 6 2.68 6 2 6 C1.67 6.99 1.34 7.98 1 9 C-1.125 3.375 -1.125 3.375 0 0 Z " fill="#FEF44C" transform="translate(155,12)"/>
<path d="M0 0 C0.33 0.99 0.66 1.98 1 3 C0.01 3 -0.98 3 -2 3 C-1.67 3.99 -1.34 4.98 -1 6 C-1.804375 6.45375 -2.60875 6.9075 -3.4375 7.375 C-6.08856572 8.74725665 -6.08856572 8.74725665 -7 11 C-7.66 11 -8.32 11 -9 11 C-9.33 10.01 -9.66 9.02 -10 8 C-8.85546875 6.2109375 -8.85546875 6.2109375 -7.1875 4.375 C-6.64480469 3.76398437 -6.10210937 3.15296875 -5.54296875 2.5234375 C-3.66953524 0.67371834 -2.65390687 0 0 0 Z " fill="#ECD31C" transform="translate(128,7)"/>
<path d="M0 0 C0.66 0.66 1.32 1.32 2 2 C1.360625 2.556875 0.72125 3.11375 0.0625 3.6875 C-2.19680987 6.22066561 -2.63149047 7.68341424 -3 11 C-3.66 11 -4.32 11 -5 11 C-5.66 11.66 -6.32 12.32 -7 13 C-7.99 13.33 -8.98 13.66 -10 14 C-8.43632643 10.47761953 -6.30504111 7.72876006 -3.875 4.75 C-3.15054688 3.85796875 -2.42609375 2.9659375 -1.6796875 2.046875 C-0.84824219 1.03367188 -0.84824219 1.03367188 0 0 Z " fill="#F5B62B" transform="translate(130,132)"/>
<path d="M0 0 C0.66 0.33 1.32 0.66 2 1 C1.979375 2.19625 1.95875 3.3925 1.9375 4.625 C1.93117429 8.18004869 2.30111125 11.50555624 3 15 C2.34 15 1.68 15 1 15 C0.67 15.66 0.34 16.32 0 17 C-0.66 16.34 -1.32 15.68 -2 15 C-1.625 12.875 -1.625 12.875 -1 11 C-1 11.66 -1 12.32 -1 13 C-0.34 13 0.32 13 1 13 C1 12.01 1 11.02 1 10 C0.34 9.67 -0.32 9.34 -1 9 C-1.33 8.34 -1.66 7.68 -2 7 C-1.34 6.34 -0.68 5.68 0 5 C-0.66 4.01 -1.32 3.02 -2 2 C-1.34 2 -0.68 2 0 2 C0 1.34 0 0.68 0 0 Z " fill="#FEF455" transform="translate(166,58)"/>
<path d="M0 0 C1.98 0.495 1.98 0.495 4 1 C4.02698189 2.62490954 4.04638757 4.24994633 4.0625 5.875 C4.07410156 6.77992187 4.08570313 7.68484375 4.09765625 8.6171875 C4 11 4 11 3 13 C2.34 13 1.68 13 1 13 C0.61077082 11.71254964 0.23901964 10.41980403 -0.125 9.125 C-0.33382812 8.40570313 -0.54265625 7.68640625 -0.7578125 6.9453125 C-0.83773437 6.30335937 -0.91765625 5.66140625 -1 5 C-0.34 4.34 0.32 3.68 1 3 C0.67 2.01 0.34 1.02 0 0 Z " fill="#FEF95D" transform="translate(223,50)"/>
<path d="M0 0 C0.66 0 1.32 0 2 0 C2.33 0.66 2.66 1.32 3 2 C3.99 2 4.98 2 6 2 C5.67 5.3 5.34 8.6 5 12 C4.67 11.01 4.34 10.02 4 9 C3.01 8.67 2.02 8.34 1 8 C0 2.25 0 2.25 0 0 Z " fill="#F9EA47" transform="translate(160,28)"/>
<path d="M0 0 C0.99 0 1.98 0 3 0 C3.34833144 4.87664009 2.41685712 7.77050005 0 12 C-0.66 12 -1.32 12 -2 12 C-2.33 10.35 -2.66 8.7 -3 7 C-2.01 7 -1.02 7 0 7 C0 6.34 0 5.68 0 5 C-0.66 4.67 -1.32 4.34 -2 4 C-1.34 3.67 -0.68 3.34 0 3 C0 2.01 0 1.02 0 0 Z " fill="#F3E118" transform="translate(224,67)"/>
<path d="M0 0 C2.4375 1.5625 2.4375 1.5625 5 4 C5.8125 7.75 5.8125 7.75 6 11 C5.34 11 4.68 11 4 11 C1.82796 8.03812728 0.16438003 5.49314009 -1 2 C-0.67 1.34 -0.34 0.68 0 0 Z " fill="#F1E414" transform="translate(221,35)"/>
<path d="M0 0 C4.41889613 1.35021826 6.34345343 3.26115668 9 7 C8.67 7.66 8.34 8.32 8 9 C5 8 5 8 3.8125 5.9375 C3.544375 5.298125 3.27625 4.65875 3 4 C2.01 4.99 1.02 5.98 0 7 C-0.66 6.34 -1.32 5.68 -2 5 C-1.01 5 -0.02 5 1 5 C1 4.34 1 3.68 1 3 C0.34 2.67 -0.32 2.34 -1 2 C-0.67 1.34 -0.34 0.68 0 0 Z " fill="#FDF457" transform="translate(216,37)"/>
<path d="M0 0 C1.62490954 -0.02698189 3.24994633 -0.04638757 4.875 -0.0625 C5.77992188 -0.07410156 6.68484375 -0.08570313 7.6171875 -0.09765625 C10 0 10 0 12 1 C11.67 2.98 11.34 4.96 11 7 C8.525 6.01 8.525 6.01 6 5 C6.33 4.01 6.66 3.02 7 2 C4.69 2 2.38 2 0 2 C0 1.34 0 0.68 0 0 Z " fill="#F9E857" transform="translate(202,34)"/>
<path d="M0 0 C2 1 2 1 4 4 C4.99 4 5.98 4 7 4 C5.125 7.875 5.125 7.875 4 9 C2.33382885 9.04063832 0.66611905 9.042721 -1 9 C-0.67 6.03 -0.34 3.06 0 0 Z " fill="#F3C42B" transform="translate(197,127)"/>
<path d="M0 0 C1.32 0 2.64 0 4 0 C4 1.65 4 3.3 4 5 C0.18510326 6.46726798 -2.29011622 5.43336419 -6 4 C-6 3.67 -6 3.34 -6 3 C-5.195625 2.87625 -4.39125 2.7525 -3.5625 2.625 C-2.716875 2.41875 -1.87125 2.2125 -1 2 C-0.67 1.34 -0.34 0.68 0 0 Z " fill="#F3E03E" transform="translate(145,7)"/>
<path d="M0 0 C1.5832978 2.9541184 2.635437 5.84447502 3.5625 9.0625 C4.3360354 11.72779038 5.12217506 14.36652518 6 17 C5.34 17 4.68 17 4 17 C2 14 2 14 2 10 C1.34 10 0.68 10 0 10 C-0.74926071 6.33694766 -1.2380014 3.57644848 0 0 Z " fill="#EEA02C" transform="translate(125,144)"/>
<path d="M0 0 C0.33 0 0.66 0 1 0 C1.39897288 3.39126945 0.95095239 5.10626982 -0.5 8.25 C-3.14387473 11.1582622 -3.59634872 11.42153264 -7.25 11.875 C-8.4875 11.91625 -9.725 11.9575 -11 12 C-10.67 11.34 -10.34 10.68 -10 10 C-6.9375 9.375 -6.9375 9.375 -4 9 C-3.71125 8.071875 -3.4225 7.14375 -3.125 6.1875 C-2 3 -2 3 0 0 Z " fill="#EFA233" transform="translate(80,132)"/>
<path d="M0 0 C0.33 0 0.66 0 1 0 C1.33 6.27 1.66 12.54 2 19 C1.34 19 0.68 19 0 19 C-0.88243604 15.24964684 -1 11.84075016 -1 8 C-1.291224 6.32546201 -1.61070799 4.65449105 -2 3 C-1.34 3 -0.68 3 0 3 C0 2.01 0 1.02 0 0 Z " fill="#F4D91A" transform="translate(168,51)"/>
<path d="M0 0 C1 2 1 2 0.44140625 4.1640625 C0.15136719 4.97617188 -0.13867188 5.78828125 -0.4375 6.625 C-0.72496094 7.44226563 -1.01242188 8.25953125 -1.30859375 9.1015625 C-1.65083984 10.04128906 -1.65083984 10.04128906 -2 11 C-2.99 10.34 -3.98 9.68 -5 9 C-4.67 8.34 -4.34 7.68 -4 7 C-4.99 6.67 -5.98 6.34 -7 6 C-5.68 6 -4.36 6 -3 6 C-2.67 4.68 -2.34 3.36 -2 2 C-2.66 1.67 -3.32 1.34 -4 1 C-2.68 0.67 -1.36 0.34 0 0 Z " fill="#EED01A" transform="translate(210,114)"/>
<path d="M0 0 C0.99 0.33 1.98 0.66 3 1 C1.68 4.63 0.36 8.26 -1 12 C-1.99 11.67 -2.98 11.34 -4 11 C-4 9.68 -4 8.36 -4 7 C-3.34 7 -2.68 7 -2 7 C-2 6.34 -2 5.68 -2 5 C-1.34 5 -0.68 5 0 5 C0 3.35 0 1.7 0 0 Z " fill="#E9CC1C" transform="translate(221,80)"/>
<path d="M0 0 C0.33 0.66 0.66 1.32 1 2 C2.33076989 2.34342449 3.66431979 2.67619874 5 3 C5.66 3.66 6.32 4.32 7 5 C4.525 6.485 4.525 6.485 2 8 C2 7.34 2 6.68 2 6 C1.34 6 0.68 6 0 6 C0 4.02 0 2.04 0 0 Z " fill="#FBBC5B" transform="translate(118,16)"/>
<path d="M0 0 C6 6 6 6 6.0625 8.5625 C6.041875 9.366875 6.02125 10.17125 6 11 C5.34 10.67 4.68 10.34 4 10 C4 9.34 4 8.68 4 8 C3.34 8 2.68 8 2 8 C-0.1519437 4.77208445 -0.20086443 3.71599191 0 0 Z " fill="#F7A142" transform="translate(47,128)"/>
<path d="M0 0 C-0.875 4.75 -0.875 4.75 -2 7 C-3.32 7 -4.64 7 -6 7 C-5 4 -5 4 -3 2 C-3.66 1.67 -4.32 1.34 -5 1 C-2 0 -2 0 0 0 Z " fill="#F5DB20" transform="translate(219,92)"/>
<path d="M0 0 C0.66 0.33 1.32 0.66 2 1 C0.37660195 2.70884005 -1.29319053 4.37446717 -3 6 C-3.66 6 -4.32 6 -5 6 C-5 6.66 -5 7.32 -5 8 C-5.99 7.67 -6.98 7.34 -8 7 C-5.36 4.69 -2.72 2.38 0 0 Z " fill="#DBA144" transform="translate(91,77)"/>
<path d="M0 0 C0.99 0.33 1.98 0.66 3 1 C2.67 1.66 2.34 2.32 2 3 C1.7677354 5.71262116 1.58063765 8.40773126 1.4375 11.125 C1.39431641 11.87910156 1.35113281 12.63320312 1.30664062 13.41015625 C1.2005168 15.27321888 1.09974999 17.13658524 1 19 C0.67 19 0.34 19 0 19 C0 12.73 0 6.46 0 0 Z " fill="#FBCC46" transform="translate(156,58)"/>
<path d="M0 0 C0.66 0.33 1.32 0.66 2 1 C0.38405168 3.04119788 -1.2856382 5.04072937 -3 7 C-3.66 7 -4.32 7 -5 7 C-5.33 7.99 -5.66 8.98 -6 10 C-6.66 9.67 -7.32 9.34 -8 9 C-5.36 6.03 -2.72 3.06 0 0 Z " fill="#DCA94C" transform="translate(185,38)"/>
<path d="M0 0 C0.33 0.66 0.66 1.32 1 2 C1.99 2.33 2.98 2.66 4 3 C2.865625 3.12375 1.73125 3.2475 0.5625 3.375 C-1.2009375 3.684375 -1.2009375 3.684375 -3 4 C-3.33 4.66 -3.66 5.32 -4 6 C-4 4.68 -4 3.36 -4 2 C-2.68 1.34 -1.36 0.68 0 0 Z " fill="#FDE05A" transform="translate(126,13)"/>
<path d="M0 0 C2.475 0.495 2.475 0.495 5 1 C4.34 3.31 3.68 5.62 3 8 C2.01 8 1.02 8 0 8 C0.2784375 7.13375 0.2784375 7.13375 0.5625 6.25 C1.04023546 3.79307475 0.75729364 2.35602466 0 0 Z " fill="#FDF157" transform="translate(199,124)"/>
<path d="M0 0 C0.99 0.495 0.99 0.495 2 1 C2 1.66 2 2.32 2 3 C2.66 3 3.32 3 4 3 C3.625 5.4375 3.625 5.4375 3 8 C2.01 8.495 2.01 8.495 1 9 C0.67 6.03 0.34 3.06 0 0 Z " fill="#F9975B" transform="translate(47,133)"/>
<path d="M0 0 C0.33 0.66 0.66 1.32 1 2 C2.65 1.34 4.3 0.68 6 0 C5.67 0.99 5.34 1.98 5 3 C2.27366306 4.10213621 -0.04144033 5 -3 5 C-2.625 3.0625 -2.625 3.0625 -2 1 C-1.34 0.67 -0.68 0.34 0 0 Z " fill="#FEED56" transform="translate(221,46)"/>
<path d="M0 0 C2.97 0 5.94 0 9 0 C8.67 0.99 8.34 1.98 8 3 C5.6568787 2.74438677 3.32156597 2.40729228 1 2 C0.67 1.34 0.34 0.68 0 0 Z " fill="#FFF967" transform="translate(136,7)"/>
<path d="M0 0 C0.66 0 1.32 0 2 0 C2.3125 2.25 2.3125 2.25 2 5 C-0.5 7.3125 -0.5 7.3125 -3 9 C-2.01 6.03 -1.02 3.06 0 0 Z " fill="#DB9D42" transform="translate(176,51)"/>
<path d="M0 0 C-0.33 1.65 -0.66 3.3 -1 5 C-3.475 4.01 -3.475 4.01 -6 3 C-6 2.34 -6 1.68 -6 1 C-3 0 -3 0 0 0 Z " fill="#FEF950" transform="translate(132,9)"/>
<path d="M0 0 C0.6875 1.8125 0.6875 1.8125 1 4 C-0.84159673 6.48615558 -2.00470711 7.00156904 -5 8 C-3.62845496 5.04590299 -2.01136276 2.55991624 0 0 Z " fill="#F6AB39" transform="translate(125,138)"/>
<path d="M0 0 C0.99 0.66 1.98 1.32 3 2 C2.34 3.32 1.68 4.64 1 6 C0.01 6 -0.98 6 -2 6 C-1.49396008 3.83125748 -1.00016187 2.00032373 0 0 Z " fill="#F7EB0D" transform="translate(204,125)"/>
<path d="M0 0 C0.66 0 1.32 0 2 0 C1.34 2.64 0.68 5.28 0 8 C-0.99 6.68 -1.98 5.36 -3 4 C-2.34 3.67 -1.68 3.34 -1 3 C-0.67 2.01 -0.34 1.02 0 0 Z " fill="#EEDA12" transform="translate(212,106)"/>
<path d="M0 0 C0.6875 1.6875 0.6875 1.6875 1 4 C-0.375 6.75 -0.375 6.75 -2 9 C-2.33 9 -2.66 9 -3 9 C-3 7.35 -3 5.7 -3 4 C-2.34 3.67 -1.68 3.34 -1 3 C-0.67 2.01 -0.34 1.02 0 0 Z " fill="#FDE541" transform="translate(165,72)"/>
<path d="M0 0 C0.66 0.33 1.32 0.66 2 1 C1.01 2.98 0.02 4.96 -1 7 C-1.33 6.34 -1.66 5.68 -2 5 C-2.66 4.67 -3.32 4.34 -4 4 C-2.68 3.34 -1.36 2.68 0 2 C0 1.34 0 0.68 0 0 Z " fill="#EABB4F" transform="translate(192,35)"/>
<path d="M0 0 C0.99 0.33 1.98 0.66 3 1 C2.6875 3.375 2.6875 3.375 2 6 C1.01 6.66 0.02 7.32 -1 8 C-0.67 5.36 -0.34 2.72 0 0 Z " fill="#FAE53F" transform="translate(152,12)"/>
</svg>
